<?xml version="1.0" encoding="UTF-8" standalone="no"?>
<!DOCTYPE svg PUBLIC "-//W3C//DTD SVG 1.0//EN" "http://www.w3.org/TR/2001/PR-SVG-20010719/DTD/svg10.dtd">
<svg width="41cm" height="41cm" viewBox="-21 228 814 819" xmlns="http://www.w3.org/2000/svg" xmlns:xlink="http://www.w3.org/1999/xlink">
  <g>
    <rect style="fill: #ffffff" x="160" y="340" width="130" height="56"/>
    <rect style="fill: none; fill-opacity:0; stroke-width: 4; stroke: #000000" x="160" y="340" width="130" height="56"/>
    <text font-size="16.9333" style="fill: #000000;text-anchor:middle;font-family:sans-serif;font-style:normal;font-weight:normal" x="225" y="362.583">
      <tspan x="225" y="362.583">CS 2110, SW</tspan>
      <tspan x="225" y="383.75">Dev Methods</tspan>
    </text>
  </g>
  <g>
    <rect style="fill: #ffffff" x="160" y="460" width="130" height="56"/>
    <rect style="fill: none; fill-opacity:0; stroke-width: 4; stroke: #000000" x="160" y="460" width="130" height="56"/>
    <text font-size="16.9333" style="fill: #000000;text-anchor:middle;font-family:sans-serif;font-style:normal;font-weight:normal" x="225" y="482.583">
      <tspan x="225" y="482.583">CS 2150, Prog</tspan>
      <tspan x="225" y="503.75">&amp; Data Rep</tspan>
    </text>
  </g>
  <g>
    <line style="fill: none; fill-opacity:0; stroke-width: 2; stroke: #000000" x1="65" y1="396" x2="65" y2="450.264"/>
    <polygon style="fill: #000000" points="65,457.764 60,447.764 65,450.264 70,447.764 "/>
    <polygon style="fill: none; fill-opacity:0; stroke-width: 2; stroke: #000000" points="65,457.764 60,447.764 65,450.264 70,447.764 "/>
  </g>
  <g>
    <line style="fill: none; fill-opacity:0; stroke-width: 2; stroke: #000000" x1="225" y1="396" x2="74.0397" y2="456.384"/>
    <polygon style="fill: #000000" points="67.0761,459.17 74.504,450.813 74.0397,456.384 78.2179,460.098 "/>
    <polygon style="fill: none; fill-opacity:0; stroke-width: 2; stroke: #000000" points="67.0761,459.17 74.504,450.813 74.0397,456.384 78.2179,460.098 "/>
  </g>
  <g>
    <line style="fill: none; fill-opacity:0; stroke-width: 2; stroke: #000000" x1="225" y1="396" x2="225" y2="450.264"/>
    <polygon style="fill: #000000" points="225,457.764 220,447.764 225,450.264 230,447.764 "/>
    <polygon style="fill: none; fill-opacity:0; stroke-width: 2; stroke: #000000" points="225,457.764 220,447.764 225,450.264 230,447.764 "/>
  </g>
  <g>
    <line style="fill: none; fill-opacity:0; stroke-width: 2; stroke: #000000" x1="225" y1="516" x2="74.0397" y2="576.384"/>
    <polygon style="fill: #000000" points="67.0761,579.17 74.504,570.813 74.0397,576.384 78.2179,580.098 "/>
    <polygon style="fill: none; fill-opacity:0; stroke-width: 2; stroke: #000000" points="67.0761,579.17 74.504,570.813 74.0397,576.384 78.2179,580.098 "/>
  </g>
  <g>
    <rect style="fill: #ffffff" x="160" y="580" width="129.4" height="56"/>
    <rect style="fill: none; fill-opacity:0; stroke-width: 2; stroke: #000000" x="160" y="580" width="129.4" height="56"/>
    <text font-size="16.9333" style="fill: #000000;text-anchor:middle;font-family:sans-serif;font-style:normal;font-weight:normal" x="224.7" y="602.583">
      <tspan x="224.7" y="602.583">CS 3240, Adv</tspan>
      <tspan x="224.7" y="623.75">SW Dev Tech</tspan>
    </text>
  </g>
  <g>
    <line style="fill: none; fill-opacity:0; stroke-width: 2; stroke: #000000" x1="225" y1="516" x2="224.826" y2="569.289"/>
    <polygon style="fill: #000000" points="224.802,576.789 219.834,566.773 224.826,569.289 229.834,566.806 "/>
    <polygon style="fill: none; fill-opacity:0; stroke-width: 2; stroke: #000000" points="224.802,576.789 219.834,566.773 224.826,569.289 229.834,566.806 "/>
  </g>
  <g>
    <rect style="fill: #ffffff" x="160" y="240" width="130" height="56"/>
    <rect style="fill: none; fill-opacity:0; stroke-width: 2; stroke: #000000" x="160" y="240" width="130" height="56"/>
    <text font-size="16.9333" style="fill: #000000;text-anchor:middle;font-family:sans-serif;font-style:normal;font-weight:normal" x="225" y="262.583">
      <tspan x="225" y="262.583">CS 111x, Intro</tspan>
      <tspan x="225" y="283.75">to Program'ing</tspan>
    </text>
  </g>
  <g>
    <rect style="fill: #ffffff" x="0" y="340" width="130" height="56"/>
    <rect style="fill: none; fill-opacity:0; stroke-width: 4; stroke: #000000" x="0" y="340" width="130" height="56"/>
    <text font-size="16.9333" style="fill: #000000;text-anchor:middle;font-family:sans-serif;font-style:normal;font-weight:normal" x="65" y="362.583">
      <tspan x="65" y="362.583">CS 2102, </tspan>
      <tspan x="65" y="383.75">Discrete Math</tspan>
    </text>
  </g>
  <g>
    <rect style="fill: #ffffff" x="0" y="580" width="130" height="56"/>
    <rect style="fill: none; fill-opacity:0; stroke-width: 4; stroke: #000000" x="0" y="580" width="130" height="56"/>
    <text font-size="16.9333" style="fill: #000000;text-anchor:middle;font-family:sans-serif;font-style:normal;font-weight:normal" x="65" y="602.583">
      <tspan x="65" y="602.583">CS 4102,</tspan>
      <tspan x="65" y="623.75">Algorithms</tspan>
    </text>
  </g>
  <g>
    <path style="fill: none; fill-opacity:0; stroke-width: 2; stroke: #000000" d="M 65,396 A 92.2882,92.2882 0 0 0 55.3881,578.728"/>
    <polygon style="fill: #000000" points="62.7709,579.823 52.4073,584.018 55.2943,579.231 53.197,574.049 "/>
    <polygon style="fill: none; fill-opacity:0; stroke-width: 2; stroke: #000000" points="62.7709,579.823 52.4073,584.018 55.2943,579.231 53.197,574.049 "/>
  </g>
  <g>
    <rect style="fill: #ffffff" x="500" y="340" width="130" height="56"/>
    <rect style="fill: none; fill-opacity:0; stroke-width: 2; stroke: #000000" x="500" y="340" width="130" height="56"/>
    <text font-size="16.9333" style="fill: #000000;text-anchor:middle;font-family:sans-serif;font-style:normal;font-weight:normal" x="565" y="362.583">
      <tspan x="565" y="362.583">CS 2330, Dig</tspan>
      <tspan x="565" y="383.75">Logic Design</tspan>
    </text>
  </g>
  <g>
    <rect style="fill: #ffffff" x="500" y="460" width="130" height="56"/>
    <rect style="fill: none; fill-opacity:0; stroke-width: 4; stroke: #000000" x="500" y="460" width="130" height="56"/>
    <text font-size="16.9333" style="fill: #000000;text-anchor:middle;font-family:sans-serif;font-style:normal;font-weight:normal" x="565" y="482.583">
      <tspan x="565" y="482.583">CS 3330, </tspan>
      <tspan x="565" y="503.75">Comp Arch</tspan>
    </text>
  </g>
  <g>
    <line style="fill: none; fill-opacity:0; stroke-width: 2; stroke: #000000" x1="565" y1="396" x2="565" y2="450.264"/>
    <polygon style="fill: #000000" points="565,457.764 560,447.764 565,450.264 570,447.764 "/>
    <polygon style="fill: none; fill-opacity:0; stroke-width: 2; stroke: #000000" points="565,457.764 560,447.764 565,450.264 570,447.764 "/>
  </g>
  <g>
    <line style="fill: none; fill-opacity:0; stroke-width: 2; stroke: #000000" x1="225" y1="396" x2="555.432" y2="458.199"/>
    <polygon style="fill: #000000" points="562.803,459.586 552.05,462.65 555.432,458.199 553.9,452.823 "/>
    <polygon style="fill: none; fill-opacity:0; stroke-width: 2; stroke: #000000" points="562.803,459.586 552.05,462.65 555.432,458.199 553.9,452.823 "/>
  </g>
  <g>
    <rect style="fill: #ffffff" x="360" y="580" width="130" height="56"/>
    <rect style="fill: none; fill-opacity:0; stroke-width: 2; stroke: #000000" x="360" y="580" width="130" height="56"/>
    <text font-size="16.9333" style="fill: #000000;text-anchor:middle;font-family:sans-serif;font-style:normal;font-weight:normal" x="425" y="602.583">
      <tspan x="425" y="602.583">CS 4414,</tspan>
      <tspan x="425" y="623.75">Oper Sys</tspan>
    </text>
  </g>
  <g>
    <line style="fill: none; fill-opacity:0; stroke-width: 2; stroke: #000000" x1="225" y1="516" x2="415.727" y2="577.033"/>
    <polygon style="fill: #000000" points="422.87,579.319 411.822,581.033 415.727,577.033 414.87,571.509 "/>
    <polygon style="fill: none; fill-opacity:0; stroke-width: 2; stroke: #000000" points="422.87,579.319 411.822,581.033 415.727,577.033 414.87,571.509 "/>
  </g>
  <g>
    <line style="fill: none; fill-opacity:0; stroke-width: 2; stroke: #000000" x1="565" y1="516" x2="433.855" y2="575.952"/>
    <polygon style="fill: #000000" points="427.034,579.07 434.05,570.365 433.855,575.952 438.207,579.46 "/>
    <polygon style="fill: none; fill-opacity:0; stroke-width: 2; stroke: #000000" points="427.034,579.07 434.05,570.365 433.855,575.952 438.207,579.46 "/>
  </g>
  <g>
    <rect style="fill: #ffffff" x="0" y="800" width="319.7" height="213.667"/>
    <rect style="fill: none; fill-opacity:0; stroke-width: 2; stroke: #000000" x="0" y="800" width="319.7" height="213.667"/>
    <text font-size="16.9333" style="fill: #000000;text-anchor:middle;font-family:sans-serif;font-style:normal;font-weight:normal" x="159.85" y="827.333">
      <tspan x="159.85" y="827.333">All CS electives not listed</tspan>
      <tspan x="159.85" y="848.5">elsewhere on this graph (but check</tspan>
      <tspan x="159.85" y="869.667">the course descriptions for details).</tspan>
      <tspan x="159.85" y="890.833">4 CS electives are required.  A CS</tspan>
      <tspan x="159.85" y="912">elective is any 3000-level or</tspan>
      <tspan x="159.85" y="933.167">4000-level class not otherwise</tspan>
      <tspan x="159.85" y="954.333">required.  In addition, CS 2330</tspan>
      <tspan x="159.85" y="975.5">counts as a CS elective.  CS 4493</tspan>
      <tspan x="159.85" y="996.667">can be used for at most 3 credits.</tspan>
    </text>
  </g>
  <g>
    <rect style="fill: #ffffff" x="360" y="780" width="131.065" height="56"/>
    <rect style="fill: none; fill-opacity:0; stroke-width: 2; stroke: #000000" x="360" y="780" width="131.065" height="56"/>
    <text font-size="16.9333" style="fill: #000000;text-anchor:middle;font-family:sans-serif;font-style:normal;font-weight:normal" x="425.533" y="802.583">
      <tspan x="425.533" y="802.583">CS 4444,</tspan>
      <tspan x="425.533" y="823.75">Parallel Comp</tspan>
    </text>
  </g>
  <g>
    <rect style="fill: #ffffff" x="360" y="700" width="131.065" height="56"/>
    <rect style="fill: none; fill-opacity:0; stroke-width: 2; stroke: #000000" x="360" y="700" width="131.065" height="56"/>
    <text font-size="16.9333" style="fill: #000000;text-anchor:middle;font-family:sans-serif;font-style:normal;font-weight:normal" x="425.533" y="722.583">
      <tspan x="425.533" y="722.583">CS 4330, Adv</tspan>
      <tspan x="425.533" y="743.75">Comp Arch</tspan>
    </text>
  </g>
  <g>
    <rect style="fill: #ffffff" x="520" y="780" width="131.065" height="56"/>
    <rect style="fill: none; fill-opacity:0; stroke-width: 2; stroke: #000000" x="520" y="780" width="131.065" height="56"/>
    <text font-size="16.9333" style="fill: #000000;text-anchor:middle;font-family:sans-serif;font-style:normal;font-weight:normal" x="585.533" y="802.583">
      <tspan x="585.533" y="802.583">CS 4457,</tspan>
      <tspan x="585.533" y="823.75">Networks</tspan>
    </text>
  </g>
  <g>
    <rect style="fill: #ffffff" x="520" y="860" width="129.4" height="56"/>
    <rect style="fill: none; fill-opacity:0; stroke-width: 2; stroke: #000000" x="520" y="860" width="129.4" height="56"/>
    <text font-size="16.9333" style="fill: #000000;text-anchor:middle;font-family:sans-serif;font-style:normal;font-weight:normal" x="584.7" y="882.583">
      <tspan x="584.7" y="882.583">CS 4458,</tspan>
      <tspan x="584.7" y="903.75">Internet Eng.</tspan>
    </text>
  </g>
  <g>
    <line style="fill: none; fill-opacity:0; stroke-width: 2; stroke: #000000" x1="585.532" y1="836" x2="585.32" y2="849.263"/>
    <polygon style="fill: #000000" points="585.2,856.762 580.36,846.683 585.32,849.263 590.359,846.843 "/>
    <polygon style="fill: none; fill-opacity:0; stroke-width: 2; stroke: #000000" points="585.2,856.762 580.36,846.683 585.32,849.263 590.359,846.843 "/>
  </g>
  <g>
    <rect style="fill: #ffffff" x="600" y="700" width="131.065" height="56"/>
    <rect style="fill: none; fill-opacity:0; stroke-width: 2; stroke: #000000" x="600" y="700" width="131.065" height="56"/>
    <text font-size="16.9333" style="fill: #000000;text-anchor:middle;font-family:sans-serif;font-style:normal;font-weight:normal" x="665.533" y="722.583">
      <tspan x="665.533" y="722.583">CS 4434,</tspan>
      <tspan x="665.533" y="743.75">Fault-tolerant</tspan>
    </text>
  </g>
  <g>
    <line style="fill: none; fill-opacity:0; stroke-width: 2; stroke: #000000" x1="565.88" y1="653.455" x2="580.618" y2="769.351"/>
    <polygon style="fill: #000000" points="581.564,776.791 575.342,767.501 580.618,769.351 585.263,766.24 "/>
    <polygon style="fill: none; fill-opacity:0; stroke-width: 2; stroke: #000000" points="581.564,776.791 575.342,767.501 580.618,769.351 585.263,766.24 "/>
  </g>
  <g>
    <rect style="fill: #ffffff" x="160" y="700" width="131.065" height="56"/>
    <rect style="fill: none; fill-opacity:0; stroke-width: 2; stroke: #000000" x="160" y="700" width="131.065" height="56"/>
    <text font-size="16.9333" style="fill: #000000;text-anchor:middle;font-family:sans-serif;font-style:normal;font-weight:normal" x="225.533" y="722.583">
      <tspan x="225.533" y="722.583">CS 4620,</tspan>
      <tspan x="225.533" y="743.75">Compilers</tspan>
    </text>
  </g>
  <g>
    <rect style="fill: #ffffff" x="0" y="460" width="130" height="56"/>
    <rect style="fill: none; fill-opacity:0; stroke-width: 2; stroke: #000000" x="0" y="460" width="130" height="56"/>
    <text font-size="16.9333" style="fill: #000000;text-anchor:middle;font-family:sans-serif;font-style:normal;font-weight:normal" x="65" y="482.583">
      <tspan x="65" y="482.583">CS 3102,</tspan>
      <tspan x="65" y="503.75">Theory Comp</tspan>
    </text>
  </g>
  <g>
    <rect style="fill: #ffffff" x="0" y="700" width="131.065" height="56"/>
    <rect style="fill: none; fill-opacity:0; stroke-width: 2; stroke: #000000" x="0" y="700" width="131.065" height="56"/>
    <text font-size="16.9333" style="fill: #000000;text-anchor:middle;font-family:sans-serif;font-style:normal;font-weight:normal" x="65.5327" y="722.583">
      <tspan x="65.5327" y="722.583">CS 3205,</tspan>
      <tspan x="65.5327" y="743.75">HCI</tspan>
    </text>
  </g>
  <g>
    <line style="fill: none; fill-opacity:0; stroke-width: 2; stroke: #000000" x1="224.7" y1="636" x2="225.405" y2="690.265"/>
    <polygon style="fill: #000000" points="225.503,697.764 220.373,687.83 225.405,690.265 230.373,687.7 "/>
    <polygon style="fill: none; fill-opacity:0; stroke-width: 2; stroke: #000000" points="225.503,697.764 220.373,687.83 225.405,690.265 230.373,687.7 "/>
  </g>
  <g>
    <line style="fill: none; fill-opacity:0; stroke-width: 2; stroke: #000000" x1="562.859" y1="652.738" x2="495.85" y2="771.52"/>
    <polygon style="fill: #000000" points="492.165,778.052 492.723,766.886 495.85,771.52 501.433,771.8 "/>
    <polygon style="fill: none; fill-opacity:0; stroke-width: 2; stroke: #000000" points="492.165,778.052 492.723,766.886 495.85,771.52 501.433,771.8 "/>
  </g>
  <g>
    <line style="fill: none; fill-opacity:0; stroke-width: 2; stroke: #000000" x1="561.148" y1="651.348" x2="499.064" y2="694.448"/>
    <polygon style="fill: #000000" points="492.903,698.725 498.266,688.915 499.064,694.448 503.969,697.129 "/>
    <polygon style="fill: none; fill-opacity:0; stroke-width: 2; stroke: #000000" points="492.903,698.725 498.266,688.915 499.064,694.448 503.969,697.129 "/>
  </g>
  <g>
    <line style="fill: none; fill-opacity:0; stroke-width: 2; stroke: #000000" x1="560.347" y1="649.421" x2="300.635" y2="698.203"/>
    <polygon style="fill: #000000" points="293.264,699.587 302.169,692.827 300.635,698.203 304.015,702.655 "/>
    <polygon style="fill: none; fill-opacity:0; stroke-width: 2; stroke: #000000" points="293.264,699.587 302.169,692.827 300.635,698.203 304.015,702.655 "/>
  </g>
  <g>
    <line style="fill: none; fill-opacity:0; stroke-width: 2; stroke: #000000" x1="568.041" y1="652.637" x2="594.554" y2="691.929"/>
    <polygon style="fill: #000000" points="598.749,698.146 589.011,692.654 594.554,691.929 597.301,687.06 "/>
    <polygon style="fill: none; fill-opacity:0; stroke-width: 2; stroke: #000000" points="598.749,698.146 589.011,692.654 594.554,691.929 597.301,687.06 "/>
  </g>
  <line style="fill: none; fill-opacity:0; stroke-width: 2; stroke: #000000" x1="320" y1="712" x2="320" y2="632"/>
  <g>
    <line style="fill: none; fill-opacity:0; stroke-width: 2; stroke: #000000" x1="324.463" y1="710.231" x2="351.292" y2="723.646"/>
    <polygon style="fill: #000000" points="358,727 346.82,727 351.292,723.646 351.292,718.056 "/>
    <polygon style="fill: none; fill-opacity:0; stroke-width: 2; stroke: #000000" points="358,727 346.82,727 351.292,723.646 351.292,718.056 "/>
  </g>
  <g>
    <line style="fill: none; fill-opacity:0; stroke-width: 2; stroke: #000000" x1="322.427" y1="712.368" x2="355.272" y2="771.489"/>
    <polygon style="fill: #000000" points="358.914,778.045 349.687,771.732 355.272,771.489 358.428,766.876 "/>
    <polygon style="fill: none; fill-opacity:0; stroke-width: 2; stroke: #000000" points="358.914,778.045 349.687,771.732 355.272,771.489 358.428,766.876 "/>
  </g>
  <g>
    <line style="fill: none; fill-opacity:0; stroke-width: 2; stroke: #000000" x1="319.984" y1="712.998" x2="319.732" y2="790.264"/>
    <polygon style="fill: #000000" points="319.707,797.764 314.74,787.748 319.732,790.264 324.74,787.78 "/>
    <polygon style="fill: none; fill-opacity:0; stroke-width: 2; stroke: #000000" points="319.707,797.764 314.74,787.748 319.732,790.264 324.74,787.78 "/>
  </g>
  <path style="fill: none; fill-opacity:0; stroke-width: 2; stroke: #000000" d="M 225 516 C 288,536 320,584 320,632"/>
  <text font-size="12.8" style="fill: #000000;text-anchor:middle;font-family:sans-serif;font-style:normal;font-weight:normal" x="80" y="240">
    <tspan x="80" y="240">(one can place</tspan>
    <tspan x="80" y="256">out of 1110 via a </tspan>
    <tspan x="80" y="272">placement exam </tspan>
    <tspan x="80" y="288">or AP credit)</tspan>
    <tspan x="80" y="304"> </tspan>
  </text>
  <text font-size="12.8" style="fill: #000000;text-anchor:middle;font-family:sans-serif;font-style:normal;font-weight:normal" x="395" y="477">
    <tspan x="395" y="477">Courses not listed: CS</tspan>
    <tspan x="395" y="493">1010 cannot count;</tspan>
    <tspan x="395" y="509">CS 2190 is a BS CS course</tspan>
  </text>
  <text font-size="16.9333" style="fill: #000000;text-anchor:middle;font-family:sans-serif;font-style:normal;font-weight:normal" x="500" y="960">
    <tspan x="500" y="960">Special topics courses (CS 2501, </tspan>
    <tspan x="500" y="981.167">3501, and 4501) have content and </tspan>
    <tspan x="500" y="1002.33">pre-reqs that vary each semester</tspan>
  </text>
  <g>
    <rect style="fill: #ffffff" x="500" y="240" width="111.008" height="25.1667"/>
    <rect style="fill: none; fill-opacity:0; stroke-width: 4; stroke: #000000" x="500" y="240" width="111.008" height="25.1667"/>
    <text font-size="16.9333" style="fill: #000000;text-anchor:middle;font-family:sans-serif;font-style:normal;font-weight:normal" x="555.504" y="257.75">
      <tspan x="555.504" y="257.75">Required</tspan>
    </text>
  </g>
  <g>
    <rect style="fill: #ffffff" x="500" y="280" width="112" height="27.1667"/>
    <rect style="fill: none; fill-opacity:0; stroke-width: 2; stroke: #000000" x="500" y="280" width="112" height="27.1667"/>
    <text font-size="16.9333" style="fill: #000000;text-anchor:middle;font-family:sans-serif;font-style:normal;font-weight:normal" x="556" y="298.75">
      <tspan x="556" y="298.75">CS Elective</tspan>
    </text>
  </g>
  <text font-size="12.8" style="fill: #000000;text-anchor:start;font-family:sans-serif;font-style:normal;font-weight:normal" x="172" y="573.334">
    <tspan x="172" y="573.334">Spring       only</tspan>
  </text>
  <g>
    <rect style="fill: #ffffff" x="300" y="240" width="130" height="56"/>
    <rect style="fill: none; fill-opacity:0; stroke-width: 2; stroke: #000000" x="300" y="240" width="130" height="56"/>
    <text font-size="16.9333" style="fill: #000000;text-anchor:middle;font-family:sans-serif;font-style:normal;font-weight:normal" x="365" y="262.583">
      <tspan x="365" y="262.583">CS 1120, Intro</tspan>
      <tspan x="365" y="283.75">to Computing</tspan>
    </text>
  </g>
  <g>
    <rect style="fill: #ffffff" x="660" y="460" width="130" height="56"/>
    <rect style="fill: none; fill-opacity:0; stroke-width: 4; stroke: #000000" x="660" y="460" width="130" height="56"/>
    <text font-size="16.9333" style="fill: #000000;text-anchor:middle;font-family:sans-serif;font-style:normal;font-weight:normal" x="725" y="482.583">
      <tspan x="725" y="482.583">Integration</tspan>
      <tspan x="725" y="503.75">Elective</tspan>
    </text>
  </g>
  <g>
    <rect style="fill: #ffffff" x="660" y="540" width="130" height="56"/>
    <rect style="fill: none; fill-opacity:0; stroke-width: 4; stroke: #000000" x="660" y="540" width="130" height="56"/>
    <text font-size="16.9333" style="fill: #000000;text-anchor:middle;font-family:sans-serif;font-style:normal;font-weight:normal" x="725" y="562.583">
      <tspan x="725" y="562.583">Integration</tspan>
      <tspan x="725" y="583.75">Elective</tspan>
    </text>
  </g>
  <g>
    <rect style="fill: #ffffff" x="660" y="380" width="130" height="56"/>
    <rect style="fill: none; fill-opacity:0; stroke-width: 4; stroke: #000000" x="660" y="380" width="130" height="56"/>
    <text font-size="16.9333" style="fill: #000000;text-anchor:middle;font-family:sans-serif;font-style:normal;font-weight:normal" x="725" y="402.583">
      <tspan x="725" y="402.583">Integration</tspan>
      <tspan x="725" y="423.75">Elective</tspan>
    </text>
  </g>
  <g>
    <rect style="fill: #ffffff" x="660" y="300" width="130" height="56"/>
    <rect style="fill: none; fill-opacity:0; stroke-width: 4; stroke: #000000" x="660" y="300" width="130" height="56"/>
    <text font-size="16.9333" style="fill: #000000;text-anchor:middle;font-family:sans-serif;font-style:normal;font-weight:normal" x="725" y="322.583">
      <tspan x="725" y="322.583">Integration</tspan>
      <tspan x="725" y="343.75">Elective</tspan>
    </text>
  </g>
  <text font-size="12.8" style="fill: #000000;text-anchor:start;font-family:sans-serif;font-style:normal;font-weight:normal" x="-9" y="331.5">
    <tspan x="-9" y="331.5">See pre-req note below!</tspan>
  </text>
  <text font-size="12.8" style="fill: #000000;text-anchor:start;font-family:sans-serif;font-style:normal;font-weight:normal" x="568" y="418">
    <tspan x="568" y="418">See pre-req</tspan>
    <tspan x="568" y="434">note below!</tspan>
  </text>
  <g>
    <line style="fill: none; fill-opacity:0; stroke-width: 2; stroke: #000000" x1="65" y1="396" x2="215.96" y2="456.384"/>
    <polygon style="fill: #000000" points="222.924,459.17 211.782,460.098 215.96,456.384 215.496,450.813 "/>
    <polygon style="fill: none; fill-opacity:0; stroke-width: 2; stroke: #000000" points="222.924,459.17 211.782,460.098 215.96,456.384 215.496,450.813 "/>
  </g>
  <g>
    <path style="fill: none; fill-opacity:0; stroke-width: 2; stroke: #000000" d="M 140 480 C 140,708 140,676 134.462,690.876"/>
    <polygon style="fill: #000000" points="131.846,697.904 130.649,686.788 134.462,690.876 140.02,690.277 "/>
    <polygon style="fill: none; fill-opacity:0; stroke-width: 2; stroke: #000000" points="131.846,697.904 130.649,686.788 134.462,690.876 140.02,690.277 "/>
  </g>
  <g>
    <ellipse style="fill: #000000" cx="565.25" cy="648.5" rx="4" ry="4"/>
    <ellipse style="fill: none; fill-opacity:0; stroke-width: 2; stroke: #000000" cx="565.25" cy="648.5" rx="4" ry="4"/>
    <ellipse style="fill: none; fill-opacity:0; stroke-width: 2; stroke: #000000" cx="565.25" cy="648.5" rx="4" ry="4"/>
  </g>
  <g>
    <ellipse style="fill: #000000" cx="320" cy="708" rx="4" ry="4"/>
    <ellipse style="fill: none; fill-opacity:0; stroke-width: 2; stroke: #000000" cx="320" cy="708" rx="4" ry="4"/>
    <ellipse style="fill: none; fill-opacity:0; stroke-width: 2; stroke: #000000" cx="320" cy="708" rx="4" ry="4"/>
  </g>
  <g>
    <line style="fill: none; fill-opacity:0; stroke-width: 2; stroke: #000000" x1="225" y1="296" x2="225" y2="330.264"/>
    <polygon style="fill: #000000" points="225,337.764 220,327.764 225,330.264 230,327.764 "/>
    <polygon style="fill: none; fill-opacity:0; stroke-width: 2; stroke: #000000" points="225,337.764 220,327.764 225,330.264 230,327.764 "/>
  </g>
  <g>
    <line style="fill: none; fill-opacity:0; stroke-width: 2; stroke: #000000" x1="365" y1="296" x2="234.288" y2="337.081"/>
    <polygon style="fill: #000000" points="227.133,339.33 235.174,331.561 234.288,337.081 238.172,341.101 "/>
    <polygon style="fill: none; fill-opacity:0; stroke-width: 2; stroke: #000000" points="227.133,339.33 235.174,331.561 234.288,337.081 238.172,341.101 "/>
  </g>
  <line style="fill: none; fill-opacity:0; stroke-width: 2; stroke: #000000" x1="565.047" y1="517.976" x2="565.246" y2="645.992"/>
  <text font-size="16.9333" style="fill: #000000;text-anchor:middle;font-family:sans-serif;font-style:normal;font-weight:normal" x="380" y="1043">
    <tspan x="380" y="1043">CS 4998, Distinguished BA Majors Research, is also in the BA program</tspan>
  </text>
  <text font-size="12.7998" style="fill: #000000;text-anchor:start;font-family:sans-serif;font-style:normal;font-weight:normal" x="159.85" y="906.833">
    <tspan x="159.85" y="906.833"></tspan>
  </text>
  <path style="fill: none; fill-opacity:0; stroke-width: 2; stroke: #000000" d="M 225 396 C 230.458,396 140,420 140,480"/>
</svg>
