<?xml version="1.0" encoding="UTF-8" standalone="no"?>
<!DOCTYPE svg PUBLIC "-//W3C//DTD SVG 1.0//EN" "http://www.w3.org/TR/2001/PR-SVG-20010719/DTD/svg10.dtd">
<svg width="37cm" height="40cm" viewBox="-21 217 734 798" xmlns="http://www.w3.org/2000/svg" xmlns:xlink="http://www.w3.org/1999/xlink">
  <g>
    <rect style="fill: #ffffff" x="160" y="340" width="130" height="56"/>
    <rect style="fill: none; fill-opacity:0; stroke-width: 4; stroke: #000000" x="160" y="340" width="130" height="56"/>
    <text font-size="16.9333" style="fill: #000000;text-anchor:middle;font-family:sans-serif;font-style:normal;font-weight:normal" x="225" y="362.583">
      <tspan x="225" y="362.583">CS 2110, SW</tspan>
      <tspan x="225" y="383.75">Dev Methods</tspan>
    </text>
  </g>
  <g>
    <rect style="fill: #ffffff" x="160" y="460" width="130" height="56"/>
    <rect style="fill: none; fill-opacity:0; stroke-width: 4; stroke: #000000" x="160" y="460" width="130" height="56"/>
    <text font-size="16.9333" style="fill: #000000;text-anchor:middle;font-family:sans-serif;font-style:normal;font-weight:normal" x="225" y="482.583">
      <tspan x="225" y="482.583">CS 2150, Prog</tspan>
      <tspan x="225" y="503.75">&amp; Data Rep</tspan>
    </text>
  </g>
  <g>
    <line style="fill: none; fill-opacity:0; stroke-width: 2; stroke: #000000" x1="65" y1="396" x2="65" y2="450.264"/>
    <polygon style="fill: #000000" points="65,457.764 60,447.764 65,450.264 70,447.764 "/>
    <polygon style="fill: none; fill-opacity:0; stroke-width: 2; stroke: #000000" points="65,457.764 60,447.764 65,450.264 70,447.764 "/>
  </g>
  <g>
    <line style="fill: none; fill-opacity:0; stroke-width: 2; stroke: #000000" x1="225" y1="396" x2="74.0397" y2="456.384"/>
    <polygon style="fill: #000000" points="67.0761,459.17 74.504,450.813 74.0397,456.384 78.2179,460.098 "/>
    <polygon style="fill: none; fill-opacity:0; stroke-width: 2; stroke: #000000" points="67.0761,459.17 74.504,450.813 74.0397,456.384 78.2179,460.098 "/>
  </g>
  <g>
    <line style="fill: none; fill-opacity:0; stroke-width: 2; stroke: #000000" x1="225" y1="396" x2="225" y2="448.346"/>
    <polygon style="fill: #000000" points="225,455.846 220,445.846 225,448.346 230,445.846 "/>
    <polygon style="fill: none; fill-opacity:0; stroke-width: 2; stroke: #000000" points="225,455.846 220,445.846 225,448.346 230,445.846 "/>
  </g>
  <g>
    <line style="fill: none; fill-opacity:0; stroke-width: 2; stroke: #000000" x1="65" y1="276" x2="65" y2="330.264"/>
    <polygon style="fill: #000000" points="65,337.764 60,327.764 65,330.264 70,327.764 "/>
    <polygon style="fill: none; fill-opacity:0; stroke-width: 2; stroke: #000000" points="65,337.764 60,327.764 65,330.264 70,327.764 "/>
  </g>
  <g>
    <line style="fill: none; fill-opacity:0; stroke-width: 2; stroke: #000000" x1="65" y1="276" x2="215.96" y2="336.384"/>
    <polygon style="fill: #000000" points="222.924,339.17 211.782,340.098 215.96,336.384 215.496,330.813 "/>
    <polygon style="fill: none; fill-opacity:0; stroke-width: 2; stroke: #000000" points="222.924,339.17 211.782,340.098 215.96,336.384 215.496,330.813 "/>
  </g>
  <g>
    <line style="fill: none; fill-opacity:0; stroke-width: 2; stroke: #000000" x1="225" y1="516" x2="74.0397" y2="576.384"/>
    <polygon style="fill: #000000" points="67.0761,579.17 74.504,570.813 74.0397,576.384 78.2179,580.098 "/>
    <polygon style="fill: none; fill-opacity:0; stroke-width: 2; stroke: #000000" points="67.0761,579.17 74.504,570.813 74.0397,576.384 78.2179,580.098 "/>
  </g>
  <g>
    <rect style="fill: #ffffff" x="160" y="580" width="129.4" height="56"/>
    <rect style="fill: none; fill-opacity:0; stroke-width: 4; stroke: #000000" x="160" y="580" width="129.4" height="56"/>
    <text font-size="16.9333" style="fill: #000000;text-anchor:middle;font-family:sans-serif;font-style:normal;font-weight:normal" x="224.7" y="602.583">
      <tspan x="224.7" y="602.583">CS 3240, Adv</tspan>
      <tspan x="224.7" y="623.75">SW Dev Tech</tspan>
    </text>
  </g>
  <g>
    <line style="fill: none; fill-opacity:0; stroke-width: 2; stroke: #000000" x1="225" y1="516" x2="224.829" y2="568.346"/>
    <polygon style="fill: #000000" points="224.805,575.846 219.837,565.83 224.829,568.346 229.837,565.862 "/>
    <polygon style="fill: none; fill-opacity:0; stroke-width: 2; stroke: #000000" points="224.805,575.846 219.837,565.83 224.829,568.346 229.837,565.862 "/>
  </g>
  <g>
    <rect style="fill: #ffffff" x="0" y="220" width="130" height="56"/>
    <rect style="fill: none; fill-opacity:0; stroke-width: 4; stroke: #000000" x="0" y="220" width="130" height="56"/>
    <text font-size="16.9333" style="fill: #000000;text-anchor:middle;font-family:sans-serif;font-style:normal;font-weight:normal" x="65" y="242.583">
      <tspan x="65" y="242.583">CS 111x, Intro</tspan>
      <tspan x="65" y="263.75">to Program'ing</tspan>
    </text>
  </g>
  <g>
    <rect style="fill: #ffffff" x="0" y="340" width="130" height="56"/>
    <rect style="fill: none; fill-opacity:0; stroke-width: 4; stroke: #000000" x="0" y="340" width="130" height="56"/>
    <text font-size="16.9333" style="fill: #000000;text-anchor:middle;font-family:sans-serif;font-style:normal;font-weight:normal" x="65" y="362.583">
      <tspan x="65" y="362.583">CS 2102, </tspan>
      <tspan x="65" y="383.75">Discrete Math</tspan>
    </text>
  </g>
  <g>
    <rect style="fill: #ffffff" x="0" y="580" width="130" height="56"/>
    <rect style="fill: none; fill-opacity:0; stroke-width: 4; stroke: #000000" x="0" y="580" width="130" height="56"/>
    <text font-size="16.9333" style="fill: #000000;text-anchor:middle;font-family:sans-serif;font-style:normal;font-weight:normal" x="65" y="602.583">
      <tspan x="65" y="602.583">CS 4102,</tspan>
      <tspan x="65" y="623.75">Algorithms</tspan>
    </text>
  </g>
  <g>
    <path style="fill: none; fill-opacity:0; stroke-width: 2; stroke: #000000" d="M 65,396 A 92.2882,92.2882 0 0 0 55.3881,578.728"/>
    <polygon style="fill: #000000" points="62.7709,579.823 52.4073,584.018 55.2943,579.231 53.197,574.049 "/>
    <polygon style="fill: none; fill-opacity:0; stroke-width: 2; stroke: #000000" points="62.7709,579.823 52.4073,584.018 55.2943,579.231 53.197,574.049 "/>
  </g>
  <g>
    <rect style="fill: #ffffff" x="500" y="340" width="130" height="56"/>
    <rect style="fill: none; fill-opacity:0; stroke-width: 4; stroke: #000000" x="500" y="340" width="130" height="56"/>
    <text font-size="16.9333" style="fill: #000000;text-anchor:middle;font-family:sans-serif;font-style:normal;font-weight:normal" x="565" y="362.583">
      <tspan x="565" y="362.583">CS 2330, Dig</tspan>
      <tspan x="565" y="383.75">Logic Design</tspan>
    </text>
  </g>
  <g>
    <rect style="fill: #ffffff" x="500" y="460" width="130" height="56"/>
    <rect style="fill: none; fill-opacity:0; stroke-width: 4; stroke: #000000" x="500" y="460" width="130" height="56"/>
    <text font-size="16.9333" style="fill: #000000;text-anchor:middle;font-family:sans-serif;font-style:normal;font-weight:normal" x="565" y="482.583">
      <tspan x="565" y="482.583">CS 3330, </tspan>
      <tspan x="565" y="503.75">Comp Arch</tspan>
    </text>
  </g>
  <g>
    <rect style="fill: #ffffff" x="340" y="460" width="130" height="56"/>
    <rect style="fill: none; fill-opacity:0; stroke-width: 4; stroke: #000000" x="340" y="460" width="130" height="56"/>
    <text font-size="16.9333" style="fill: #000000;text-anchor:middle;font-family:sans-serif;font-style:normal;font-weight:normal" x="405" y="482.583">
      <tspan x="405" y="482.583">CS 2190,</tspan>
      <tspan x="405" y="503.75">CS Seminar</tspan>
    </text>
  </g>
  <g>
    <line style="fill: none; fill-opacity:0; stroke-width: 2; stroke: #000000" x1="565" y1="396" x2="565" y2="450.264"/>
    <polygon style="fill: #000000" points="565,457.764 560,447.764 565,450.264 570,447.764 "/>
    <polygon style="fill: none; fill-opacity:0; stroke-width: 2; stroke: #000000" points="565,457.764 560,447.764 565,450.264 570,447.764 "/>
  </g>
  <g>
    <line style="fill: none; fill-opacity:0; stroke-width: 2; stroke: #000000" x1="225" y1="396" x2="555.432" y2="458.199"/>
    <polygon style="fill: #000000" points="562.803,459.586 552.05,462.65 555.432,458.199 553.9,452.823 "/>
    <polygon style="fill: none; fill-opacity:0; stroke-width: 2; stroke: #000000" points="562.803,459.586 552.05,462.65 555.432,458.199 553.9,452.823 "/>
  </g>
  <g>
    <rect style="fill: #ffffff" x="340" y="580" width="130" height="56"/>
    <rect style="fill: none; fill-opacity:0; stroke-width: 4; stroke: #000000" x="340" y="580" width="130" height="56"/>
    <text font-size="16.9333" style="fill: #000000;text-anchor:middle;font-family:sans-serif;font-style:normal;font-weight:normal" x="405" y="602.583">
      <tspan x="405" y="602.583">CS 4414,</tspan>
      <tspan x="405" y="623.75">Oper Sys</tspan>
    </text>
  </g>
  <g>
    <line style="fill: none; fill-opacity:0; stroke-width: 2; stroke: #000000" x1="225" y1="516" x2="395.827" y2="576.738"/>
    <polygon style="fill: #000000" points="402.893,579.251 391.796,580.612 395.827,576.738 395.146,571.19 "/>
    <polygon style="fill: none; fill-opacity:0; stroke-width: 2; stroke: #000000" points="402.893,579.251 391.796,580.612 395.827,576.738 395.146,571.19 "/>
  </g>
  <g>
    <line style="fill: none; fill-opacity:0; stroke-width: 2; stroke: #000000" x1="565" y1="516" x2="414.04" y2="576.384"/>
    <polygon style="fill: #000000" points="407.076,579.17 414.504,570.813 414.04,576.384 418.218,580.098 "/>
    <polygon style="fill: none; fill-opacity:0; stroke-width: 2; stroke: #000000" points="407.076,579.17 414.504,570.813 414.04,576.384 418.218,580.098 "/>
  </g>
  <path style="fill: none; fill-opacity:0; stroke-width: 2; stroke: #000000" d="M 225 396 C 130,440 140,500 140,600"/>
  <g>
    <rect style="fill: #ffffff" x="0" y="780" width="320" height="234.833"/>
    <rect style="fill: none; fill-opacity:0; stroke-width: 2; stroke: #000000" x="0" y="780" width="320" height="234.833"/>
    <text font-size="16.9333" style="fill: #000000;text-anchor:middle;font-family:sans-serif;font-style:normal;font-weight:normal" x="160" y="807.333">
      <tspan x="160" y="807.333">All CS electives not listed</tspan>
      <tspan x="160" y="828.5">elsewhere on this graph (but check</tspan>
      <tspan x="160" y="849.667">the course descriptions for details).</tspan>
      <tspan x="160" y="870.833">5 CS electives are required.  A CS</tspan>
      <tspan x="160" y="892">elective is any 3000-level or </tspan>
      <tspan x="160" y="913.167">4000-level class not otherwise</tspan>
      <tspan x="160" y="934.333">required for the major.  CS 4993</tspan>
      <tspan x="160" y="955.5">can be used for at most 3 credits.</tspan>
      <tspan x="160" y="976.667">CS 4998 is in the BA program, and</tspan>
      <tspan x="160" y="997.833">does not count as an elective.</tspan>
    </text>
  </g>
  <g>
    <rect style="fill: #ffffff" x="580" y="540" width="131.065" height="56"/>
    <rect style="fill: none; fill-opacity:0; stroke-width: 2; stroke: #000000" x="580" y="540" width="131.065" height="56"/>
    <text font-size="16.9333" style="fill: #000000;text-anchor:middle;font-family:sans-serif;font-style:normal;font-weight:normal" x="645.533" y="562.583">
      <tspan x="645.533" y="562.583">ECE 4435,</tspan>
      <tspan x="645.533" y="583.75">Comp Org &amp; D</tspan>
    </text>
  </g>
  <g>
    <rect style="fill: #ffffff" x="580" y="620" width="129.4" height="56"/>
    <rect style="fill: none; fill-opacity:0; stroke-width: 2; stroke: #000000" x="580" y="620" width="129.4" height="56"/>
    <text font-size="16.9333" style="fill: #000000;text-anchor:middle;font-family:sans-serif;font-style:normal;font-weight:normal" x="644.7" y="642.583">
      <tspan x="644.7" y="642.583">ECE 4440,</tspan>
      <tspan x="644.7" y="663.75">Adv Dig Des</tspan>
    </text>
  </g>
  <g>
    <line style="fill: none; fill-opacity:0; stroke-width: 2; stroke: #000000" x1="645.532" y1="596" x2="645.32" y2="609.263"/>
    <polygon style="fill: #000000" points="645.2,616.762 640.36,606.683 645.32,609.263 650.359,606.843 "/>
    <polygon style="fill: none; fill-opacity:0; stroke-width: 2; stroke: #000000" points="645.2,616.762 640.36,606.683 645.32,609.263 650.359,606.843 "/>
  </g>
  <text font-size="12.8" style="fill: #000000;text-anchor:start;font-family:sans-serif;font-style:normal;font-weight:normal" x="645.532" y="568">
    <tspan x="645.532" y="568"></tspan>
  </text>
  <g>
    <rect style="fill: #ffffff" x="340" y="780" width="131.065" height="56"/>
    <rect style="fill: none; fill-opacity:0; stroke-width: 2; stroke: #000000" x="340" y="780" width="131.065" height="56"/>
    <text font-size="16.9333" style="fill: #000000;text-anchor:middle;font-family:sans-serif;font-style:normal;font-weight:normal" x="405.533" y="802.583">
      <tspan x="405.533" y="802.583">CS 4444,</tspan>
      <tspan x="405.533" y="823.75">Parallel Comp</tspan>
    </text>
  </g>
  <g>
    <rect style="fill: #ffffff" x="340" y="700" width="131.065" height="56"/>
    <rect style="fill: none; fill-opacity:0; stroke-width: 2; stroke: #000000" x="340" y="700" width="131.065" height="56"/>
    <text font-size="16.9333" style="fill: #000000;text-anchor:middle;font-family:sans-serif;font-style:normal;font-weight:normal" x="405.533" y="722.583">
      <tspan x="405.533" y="722.583">CS 4330, Adv</tspan>
      <tspan x="405.533" y="743.75">Comp Arch</tspan>
    </text>
  </g>
  <g>
    <rect style="fill: #ffffff" x="500" y="780" width="131.065" height="56"/>
    <rect style="fill: none; fill-opacity:0; stroke-width: 2; stroke: #000000" x="500" y="780" width="131.065" height="56"/>
    <text font-size="16.9333" style="fill: #000000;text-anchor:middle;font-family:sans-serif;font-style:normal;font-weight:normal" x="565.533" y="802.583">
      <tspan x="565.533" y="802.583">CS 4457,</tspan>
      <tspan x="565.533" y="823.75">Networks</tspan>
    </text>
  </g>
  <g>
    <rect style="fill: #ffffff" x="500" y="860" width="129.4" height="56"/>
    <rect style="fill: none; fill-opacity:0; stroke-width: 2; stroke: #000000" x="500" y="860" width="129.4" height="56"/>
    <text font-size="16.9333" style="fill: #000000;text-anchor:middle;font-family:sans-serif;font-style:normal;font-weight:normal" x="564.7" y="882.583">
      <tspan x="564.7" y="882.583">CS 4458,</tspan>
      <tspan x="564.7" y="903.75">Internet Eng.</tspan>
    </text>
  </g>
  <g>
    <line style="fill: none; fill-opacity:0; stroke-width: 2; stroke: #000000" x1="565.532" y1="836" x2="565.32" y2="849.263"/>
    <polygon style="fill: #000000" points="565.2,856.762 560.36,846.683 565.32,849.263 570.359,846.843 "/>
    <polygon style="fill: none; fill-opacity:0; stroke-width: 2; stroke: #000000" points="565.2,856.762 560.36,846.683 565.32,849.263 570.359,846.843 "/>
  </g>
  <g>
    <rect style="fill: #ffffff" x="580" y="700" width="131.065" height="56"/>
    <rect style="fill: none; fill-opacity:0; stroke-width: 2; stroke: #000000" x="580" y="700" width="131.065" height="56"/>
    <text font-size="16.9333" style="fill: #000000;text-anchor:middle;font-family:sans-serif;font-style:normal;font-weight:normal" x="645.533" y="722.583">
      <tspan x="645.533" y="722.583">CS 4434,</tspan>
      <tspan x="645.533" y="743.75">Fault-tolerant</tspan>
    </text>
  </g>
  <line style="fill: none; fill-opacity:0; stroke-width: 2; stroke: #000000" x1="565" y1="516" x2="564.036" y2="649.005"/>
  <g>
    <rect style="fill: #ffffff" x="160" y="700" width="131.065" height="56"/>
    <rect style="fill: none; fill-opacity:0; stroke-width: 2; stroke: #000000" x="160" y="700" width="131.065" height="56"/>
    <text font-size="16.9333" style="fill: #000000;text-anchor:middle;font-family:sans-serif;font-style:normal;font-weight:normal" x="225.533" y="722.583">
      <tspan x="225.533" y="722.583">CS 4620,</tspan>
      <tspan x="225.533" y="743.75">Compilers</tspan>
    </text>
  </g>
  <g>
    <rect style="fill: #ffffff" x="0" y="460" width="130" height="56"/>
    <rect style="fill: none; fill-opacity:0; stroke-width: 4; stroke: #000000" x="0" y="460" width="130" height="56"/>
    <text font-size="16.9333" style="fill: #000000;text-anchor:middle;font-family:sans-serif;font-style:normal;font-weight:normal" x="65" y="482.583">
      <tspan x="65" y="482.583">CS 3102,</tspan>
      <tspan x="65" y="503.75">Theory Comp</tspan>
    </text>
  </g>
  <g>
    <rect style="fill: #ffffff" x="0" y="700" width="131.065" height="56"/>
    <rect style="fill: none; fill-opacity:0; stroke-width: 2; stroke: #000000" x="0" y="700" width="131.065" height="56"/>
    <text font-size="16.9333" style="fill: #000000;text-anchor:middle;font-family:sans-serif;font-style:normal;font-weight:normal" x="65.5327" y="722.583">
      <tspan x="65.5327" y="722.583">CS 3205,</tspan>
      <tspan x="65.5327" y="743.75">HCI</tspan>
    </text>
  </g>
  <g>
    <line style="fill: none; fill-opacity:0; stroke-width: 2; stroke: #000000" x1="224.7" y1="636" x2="225.405" y2="690.265"/>
    <polygon style="fill: #000000" points="225.503,697.764 220.373,687.83 225.405,690.265 230.373,687.7 "/>
    <polygon style="fill: none; fill-opacity:0; stroke-width: 2; stroke: #000000" points="225.503,697.764 220.373,687.83 225.405,690.265 230.373,687.7 "/>
  </g>
  <g>
    <line style="fill: none; fill-opacity:0; stroke-width: 2; stroke: #000000" x1="561.039" y1="658.014" x2="476.845" y2="772.165"/>
    <polygon style="fill: #000000" points="472.393,778.2 474.305,767.185 476.845,772.165 482.353,773.121 "/>
    <polygon style="fill: none; fill-opacity:0; stroke-width: 2; stroke: #000000" points="472.393,778.2 474.305,767.185 476.845,772.165 482.353,773.121 "/>
  </g>
  <g>
    <line style="fill: none; fill-opacity:0; stroke-width: 2; stroke: #000000" x1="559.53" y1="656.212" x2="479.792" y2="695.681"/>
    <polygon style="fill: #000000" points="473.07,699.008 479.814,690.091 479.792,695.681 484.25,699.053 "/>
    <polygon style="fill: none; fill-opacity:0; stroke-width: 2; stroke: #000000" points="473.07,699.008 479.814,690.091 479.792,695.681 484.25,699.053 "/>
  </g>
  <g>
    <line style="fill: none; fill-opacity:0; stroke-width: 2; stroke: #000000" x1="559.136" y1="654.82" x2="300.667" y2="698.382"/>
    <polygon style="fill: #000000" points="293.271,699.628 302.301,693.036 300.667,698.382 303.963,702.897 "/>
    <polygon style="fill: none; fill-opacity:0; stroke-width: 2; stroke: #000000" points="293.271,699.628 302.301,693.036 300.667,698.382 303.963,702.897 "/>
  </g>
  <g>
    <line style="fill: none; fill-opacity:0; stroke-width: 2; stroke: #000000" x1="565" y1="516" x2="574.84" y2="531.744"/>
    <polygon style="fill: #000000" points="578.815,538.104 569.275,532.274 574.84,531.744 577.755,526.974 "/>
    <polygon style="fill: none; fill-opacity:0; stroke-width: 2; stroke: #000000" points="578.815,538.104 569.275,532.274 574.84,531.744 577.755,526.974 "/>
  </g>
  <g>
    <line style="fill: none; fill-opacity:0; stroke-width: 2; stroke: #000000" x1="565.645" y1="658.728" x2="576.802" y2="690.804"/>
    <polygon style="fill: #000000" points="579.265,697.888 571.258,690.086 576.802,690.804 580.703,686.8 "/>
    <polygon style="fill: none; fill-opacity:0; stroke-width: 2; stroke: #000000" points="579.265,697.888 571.258,690.086 576.802,690.804 580.703,686.8 "/>
  </g>
  <line style="fill: none; fill-opacity:0; stroke-width: 2; stroke: #000000" x1="320" y1="703.009" x2="320" y2="632"/>
  <g>
    <line style="fill: none; fill-opacity:0; stroke-width: 2; stroke: #000000" x1="323.54" y1="711.54" x2="333.116" y2="721.116"/>
    <polygon style="fill: #000000" points="338.419,726.419 327.812,722.883 333.116,721.116 334.883,715.812 "/>
    <polygon style="fill: none; fill-opacity:0; stroke-width: 2; stroke: #000000" points="338.419,726.419 327.812,722.883 333.116,721.116 334.883,715.812 "/>
  </g>
  <g>
    <line style="fill: none; fill-opacity:0; stroke-width: 2; stroke: #000000" x1="321.34" y1="712.825" x2="337.394" y2="770.619"/>
    <polygon style="fill: #000000" points="339.402,777.846 331.908,769.549 337.394,770.619 341.543,766.872 "/>
    <polygon style="fill: none; fill-opacity:0; stroke-width: 2; stroke: #000000" points="339.402,777.846 331.908,769.549 337.394,770.619 341.543,766.872 "/>
  </g>
  <g>
    <line style="fill: none; fill-opacity:0; stroke-width: 2; stroke: #000000" x1="320" y1="713.001" x2="320" y2="770.264"/>
    <polygon style="fill: #000000" points="320,777.764 315,767.764 320,770.264 325,767.764 "/>
    <polygon style="fill: none; fill-opacity:0; stroke-width: 2; stroke: #000000" points="320,777.764 315,767.764 320,770.264 325,767.764 "/>
  </g>
  <path style="fill: none; fill-opacity:0; stroke-width: 2; stroke: #000000" d="M 225 516 C 288,536 320,584 320,632"/>
  <text font-size="12.8" style="fill: #000000;text-anchor:middle;font-family:sans-serif;font-style:normal;font-weight:normal" x="200" y="230">
    <tspan x="200" y="230">(one can place</tspan>
    <tspan x="200" y="246">out of 1110 via a </tspan>
    <tspan x="200" y="262">placement exam </tspan>
    <tspan x="200" y="278">or AP credit)</tspan>
    <tspan x="200" y="294"> </tspan>
  </text>
  <text font-size="12.8" style="fill: #000000;text-anchor:middle;font-family:sans-serif;font-style:normal;font-weight:normal" x="520" y="240">
    <tspan x="520" y="240">Courses not listed:</tspan>
    <tspan x="520" y="256">CS 1010 cannot count;</tspan>
    <tspan x="520" y="272">CS 1120, 2220, &amp; 4998 </tspan>
    <tspan x="520" y="288">are BA CS courses</tspan>
  </text>
  <text font-size="16.9333" style="fill: #000000;text-anchor:middle;font-family:sans-serif;font-style:normal;font-weight:normal" x="500" y="950">
    <tspan x="500" y="950">Special topics courses (CS 2501,</tspan>
    <tspan x="500" y="971.167">3501, and 4501) have content and</tspan>
    <tspan x="500" y="992.333">pre-reqs that vary each semester</tspan>
  </text>
  <g>
    <rect style="fill: #ffffff" x="280" y="220" width="111.008" height="25.1667"/>
    <rect style="fill: none; fill-opacity:0; stroke-width: 4; stroke: #000000" x="280" y="220" width="111.008" height="25.1667"/>
    <text font-size="16.9333" style="fill: #000000;text-anchor:middle;font-family:sans-serif;font-style:normal;font-weight:normal" x="335.504" y="237.75">
      <tspan x="335.504" y="237.75">Required</tspan>
    </text>
  </g>
  <g>
    <rect style="fill: #ffffff" x="280" y="260" width="112" height="27.1667"/>
    <rect style="fill: none; fill-opacity:0; stroke-width: 2; stroke: #000000" x="280" y="260" width="112" height="27.1667"/>
    <text font-size="16.9333" style="fill: #000000;text-anchor:middle;font-family:sans-serif;font-style:normal;font-weight:normal" x="336" y="278.75">
      <tspan x="336" y="278.75">CS Elective</tspan>
    </text>
  </g>
  <text font-size="12.8" style="fill: #000000;text-anchor:start;font-family:sans-serif;font-style:normal;font-weight:normal" x="172" y="573.334">
    <tspan x="172" y="573.334">Spring       only</tspan>
  </text>
  <text font-size="12.8" style="fill: #000000;text-anchor:start;font-family:sans-serif;font-style:normal;font-weight:normal" x="400.5" y="454.666">
    <tspan x="400.5" y="454.666">Spring only</tspan>
  </text>
  <g>
    <ellipse style="fill: #000000" cx="564" cy="654" rx="4" ry="4"/>
    <ellipse style="fill: none; fill-opacity:0; stroke-width: 2; stroke: #000000" cx="564" cy="654" rx="4" ry="4"/>
    <ellipse style="fill: none; fill-opacity:0; stroke-width: 2; stroke: #000000" cx="564" cy="654" rx="4" ry="4"/>
  </g>
  <g>
    <line style="fill: none; fill-opacity:0; stroke-width: 2; stroke: #000000" x1="564.05" y1="658.982" x2="565.147" y2="769.267"/>
    <polygon style="fill: #000000" points="565.222,776.767 560.123,766.817 565.147,769.267 570.122,766.718 "/>
    <polygon style="fill: none; fill-opacity:0; stroke-width: 2; stroke: #000000" points="565.222,776.767 560.123,766.817 565.147,769.267 570.122,766.718 "/>
  </g>
  <g>
    <ellipse style="fill: #000000" cx="320" cy="708" rx="4" ry="4"/>
    <ellipse style="fill: none; fill-opacity:0; stroke-width: 2; stroke: #000000" cx="320" cy="708" rx="4" ry="4"/>
    <ellipse style="fill: none; fill-opacity:0; stroke-width: 2; stroke: #000000" cx="320" cy="708" rx="4" ry="4"/>
  </g>
  <g>
    <line style="fill: none; fill-opacity:0; stroke-width: 2; stroke: #000000" x1="225" y1="396" x2="395.827" y2="456.738"/>
    <polygon style="fill: #000000" points="402.893,459.251 391.796,460.612 395.827,456.738 395.146,451.19 "/>
    <polygon style="fill: none; fill-opacity:0; stroke-width: 2; stroke: #000000" points="402.893,459.251 391.796,460.612 395.827,456.738 395.146,451.19 "/>
  </g>
  <g>
    <path style="fill: none; fill-opacity:0; stroke-width: 2; stroke: #000000" d="M 140 600 C 140,640 140,680 135.037,691.111"/>
    <polygon style="fill: #000000" points="131.977,697.958 131.491,686.789 135.037,691.111 140.621,690.867 "/>
    <polygon style="fill: none; fill-opacity:0; stroke-width: 2; stroke: #000000" points="131.977,697.958 131.491,686.789 135.037,691.111 140.621,690.867 "/>
  </g>
  <g>
    <line style="fill: none; fill-opacity:0; stroke-width: 2; stroke: #000000" x1="65" y1="396" x2="215.96" y2="456.384"/>
    <polygon style="fill: #000000" points="222.924,459.17 211.782,460.098 215.96,456.384 215.496,450.813 "/>
    <polygon style="fill: none; fill-opacity:0; stroke-width: 2; stroke: #000000" points="222.924,459.17 211.782,460.098 215.96,456.384 215.496,450.813 "/>
  </g>
  <text font-size="12.8" style="fill: #000000;text-anchor:start;font-family:sans-serif;font-style:normal;font-weight:normal" x="160" y="897.416">
    <tspan x="160" y="897.416"></tspan>
  </text>
  <text font-size="12.8" style="fill: #000000;text-anchor:start;font-family:sans-serif;font-style:normal;font-weight:normal" x="160" y="897.416">
    <tspan x="160" y="897.416"></tspan>
  </text>
  <text font-size="12.8" style="fill: #000000;text-anchor:start;font-family:sans-serif;font-style:normal;font-weight:normal" x="160" y="897.416">
    <tspan x="160" y="897.416"></tspan>
  </text>
  <text font-size="12.8" style="fill: #000000;text-anchor:start;font-family:sans-serif;font-style:normal;font-weight:normal" x="160" y="897.416">
    <tspan x="160" y="897.416"></tspan>
  </text>
</svg>
