<?xml version="1.0" encoding="UTF-8" standalone="no"?>
<!DOCTYPE svg PUBLIC "-//W3C//DTD SVG 1.0//EN" "http://www.w3.org/TR/2001/PR-SVG-20010719/DTD/svg10.dtd">
<svg width="41cm" height="58cm" viewBox="108 254 817 1150" xmlns="http://www.w3.org/2000/svg" xmlns:xlink="http://www.w3.org/1999/xlink">
  <g>
    <rect style="fill: #ffffff" x="480" y="360" width="130" height="56"/>
    <rect style="fill: none; fill-opacity:0; stroke-width: 4; stroke: #000000" x="480" y="360" width="130" height="56"/>
    <text font-size="16.9333" style="fill: #000000;text-anchor:middle;font-family:sans-serif;font-style:normal;font-weight:normal" x="545" y="382.583">
      <tspan x="545" y="382.583">CS 2102,</tspan>
      <tspan x="545" y="403.75">Discrete Math</tspan>
    </text>
  </g>
  <g>
    <rect style="fill: #ffffff" x="480" y="460" width="130" height="56"/>
    <rect style="fill: none; fill-opacity:0; stroke-width: 4; stroke: #000000" x="480" y="460" width="130" height="56"/>
    <text font-size="16.9333" style="fill: #000000;text-anchor:middle;font-family:sans-serif;font-style:normal;font-weight:normal" x="545" y="482.583">
      <tspan x="545" y="482.583">CS 2150, Prog</tspan>
      <tspan x="545" y="503.75">&amp; Data Rep</tspan>
    </text>
  </g>
  <g>
    <rect style="fill: #ffffff" x="160" y="360" width="130" height="56"/>
    <rect style="fill: none; fill-opacity:0; stroke-width: 4; stroke: #000000" x="160" y="360" width="130" height="56"/>
    <text font-size="16.9333" style="fill: #000000;text-anchor:middle;font-family:sans-serif;font-style:normal;font-weight:normal" x="225" y="382.583">
      <tspan x="225" y="382.583">ECE 2630,</tspan>
      <tspan x="225" y="403.75">Circuits I</tspan>
    </text>
  </g>
  <g>
    <rect style="fill: #ffffff" x="320" y="460" width="130" height="56"/>
    <rect style="fill: none; fill-opacity:0; stroke-width: 4; stroke: #000000" x="320" y="460" width="130" height="56"/>
    <text font-size="16.9333" style="fill: #000000;text-anchor:middle;font-family:sans-serif;font-style:normal;font-weight:normal" x="385" y="482.583">
      <tspan x="385" y="482.583">ECE 2660,</tspan>
      <tspan x="385" y="503.75">Electronics I</tspan>
    </text>
  </g>
  <g>
    <rect style="fill: #ffffff" x="480" y="260" width="130" height="56"/>
    <rect style="fill: none; fill-opacity:0; stroke-width: 4; stroke: #000000" x="480" y="260" width="130" height="56"/>
    <text font-size="16.9333" style="fill: #000000;text-anchor:middle;font-family:sans-serif;font-style:normal;font-weight:normal" x="545" y="282.583">
      <tspan x="545" y="282.583">CS 111x, Intro</tspan>
      <tspan x="545" y="303.75">to Program'ing</tspan>
    </text>
  </g>
  <g>
    <rect style="fill: #ffffff" x="640" y="460" width="130" height="56"/>
    <rect style="fill: none; fill-opacity:0; stroke-width: 4; stroke: #000000" x="640" y="460" width="130" height="56"/>
    <text font-size="16.9333" style="fill: #000000;text-anchor:middle;font-family:sans-serif;font-style:normal;font-weight:normal" x="705" y="482.583">
      <tspan x="705" y="482.583">CS/ECE 3330, </tspan>
      <tspan x="705" y="503.75">Comp Arch</tspan>
    </text>
  </g>
  <g>
    <rect style="fill: #ffffff" x="640" y="360" width="130" height="56"/>
    <rect style="fill: none; fill-opacity:0; stroke-width: 4; stroke: #000000" x="640" y="360" width="130" height="56"/>
    <text font-size="16.9333" style="fill: #000000;text-anchor:middle;font-family:sans-serif;font-style:normal;font-weight:normal" x="705" y="382.583">
      <tspan x="705" y="382.583">CS 2110, SW</tspan>
      <tspan x="705" y="403.75">Dev Methods</tspan>
    </text>
  </g>
  <g>
    <rect style="fill: #ffffff" x="480" y="560" width="130" height="56"/>
    <rect style="fill: none; fill-opacity:0; stroke-width: 4; stroke: #000000" x="480" y="560" width="130" height="56"/>
    <text font-size="16.9333" style="fill: #000000;text-anchor:middle;font-family:sans-serif;font-style:normal;font-weight:normal" x="545" y="582.583">
      <tspan x="545" y="582.583">CS 4414,</tspan>
      <tspan x="545" y="603.75">Oper Sys</tspan>
    </text>
  </g>
  <g>
    <rect style="fill: #ffffff" x="640" y="560" width="131.065" height="56"/>
    <rect style="fill: none; fill-opacity:0; stroke-width: 4; stroke: #000000" x="640" y="560" width="131.065" height="56"/>
    <text font-size="16.9333" style="fill: #000000;text-anchor:middle;font-family:sans-serif;font-style:normal;font-weight:normal" x="705.533" y="582.583">
      <tspan x="705.533" y="582.583">ECE 4435,</tspan>
      <tspan x="705.533" y="603.75">Comp Org &amp; D</tspan>
    </text>
  </g>
  <g>
    <rect style="fill: #ffffff" x="640" y="660" width="129.4" height="56"/>
    <rect style="fill: none; fill-opacity:0; stroke-width: 4; stroke: #000000" x="640" y="660" width="129.4" height="56"/>
    <text font-size="16.9333" style="fill: #000000;text-anchor:middle;font-family:sans-serif;font-style:normal;font-weight:normal" x="704.7" y="682.583">
      <tspan x="704.7" y="682.583">ECE 4440,</tspan>
      <tspan x="704.7" y="703.75">Adv Dig Des</tspan>
    </text>
  </g>
  <g>
    <line style="fill: none; fill-opacity:0; stroke-width: 2; stroke: #000000" x1="705.532" y1="616" x2="705.159" y2="648.268"/>
    <polygon style="fill: #000000" points="705.072,655.767 700.188,645.71 705.159,648.268 710.188,645.825 "/>
    <polygon style="fill: none; fill-opacity:0; stroke-width: 2; stroke: #000000" points="705.072,655.767 700.188,645.71 705.159,648.268 710.188,645.825 "/>
  </g>
  <text font-size="12.8" style="fill: #000000;text-anchor:start;font-family:sans-serif;font-style:normal;font-weight:normal" x="705.532" y="588">
    <tspan x="705.532" y="588"></tspan>
  </text>
  <g>
    <rect style="fill: #ffffff" x="480" y="660" width="131.065" height="56"/>
    <rect style="fill: none; fill-opacity:0; stroke-width: 4; stroke: #000000" x="480" y="660" width="131.065" height="56"/>
    <text font-size="16.9333" style="fill: #000000;text-anchor:middle;font-family:sans-serif;font-style:normal;font-weight:normal" x="545.533" y="682.583">
      <tspan x="545.533" y="682.583">CS/ECE 4457,</tspan>
      <tspan x="545.533" y="703.75">Networks</tspan>
    </text>
  </g>
  <g>
    <rect style="fill: #ffffff" x="160" y="460" width="130" height="56"/>
    <rect style="fill: none; fill-opacity:0; stroke-width: 4; stroke: #000000" x="160" y="460" width="130" height="56"/>
    <text font-size="16.9333" style="fill: #000000;text-anchor:middle;font-family:sans-serif;font-style:normal;font-weight:normal" x="225" y="482.583">
      <tspan x="225" y="482.583">ECE 3750,</tspan>
      <tspan x="225" y="503.75">Signals &amp; Sys</tspan>
    </text>
  </g>
  <text font-size="12.8" style="fill: #000000;text-anchor:middle;font-family:sans-serif;font-style:normal;font-weight:normal" x="680" y="271">
    <tspan x="680" y="271">(one can place</tspan>
    <tspan x="680" y="287">out of 1110 via a </tspan>
    <tspan x="680" y="303">placement exam </tspan>
    <tspan x="680" y="319">or AP credit)</tspan>
    <tspan x="680" y="335"> </tspan>
  </text>
  <g>
    <rect style="fill: #ffffff" x="120" y="624" width="140" height="25.1667"/>
    <rect style="fill: none; fill-opacity:0; stroke-width: 4; stroke: #000000" x="120" y="624" width="140" height="25.1667"/>
    <text font-size="16.9333" style="fill: #000000;text-anchor:middle;font-family:sans-serif;font-style:normal;font-weight:normal" x="190" y="641.75">
      <tspan x="190" y="641.75">Required</tspan>
    </text>
  </g>
  <g>
    <rect style="fill: #ffffff" x="120" y="660" width="140" height="27.1667"/>
    <rect style="fill: none; fill-opacity:0; stroke-width: 2; stroke: #000000" x="120" y="660" width="140" height="27.1667"/>
    <text font-size="16.9333" style="fill: #000000;text-anchor:middle;font-family:sans-serif;font-style:normal;font-weight:normal" x="190" y="678.75">
      <tspan x="190" y="678.75">CS/ECE Elective</tspan>
    </text>
  </g>
  <text font-size="12.8" style="fill: #000000;text-anchor:start;font-family:sans-serif;font-style:normal;font-weight:normal" x="318.5" y="554.5">
    <tspan x="318.5" y="554.5">Spring only</tspan>
  </text>
  <g>
    <rect style="fill: #ffffff" x="320" y="560" width="130" height="56"/>
    <rect style="fill: none; fill-opacity:0; stroke-width: 4; stroke: #000000" x="320" y="560" width="130" height="56"/>
    <text font-size="16.9333" style="fill: #000000;text-anchor:middle;font-family:sans-serif;font-style:normal;font-weight:normal" x="385" y="582.583">
      <tspan x="385" y="582.583">CS 3240, Adv</tspan>
      <tspan x="385" y="603.75">SW Dev Tech</tspan>
    </text>
  </g>
  <g>
    <line style="fill: none; fill-opacity:0; stroke-width: 2; stroke: #000000" x1="225" y1="416" x2="375.612" y2="457.418"/>
    <polygon style="fill: #000000" points="382.844,459.407 371.876,461.577 375.612,457.418 374.528,451.935 "/>
    <polygon style="fill: none; fill-opacity:0; stroke-width: 2; stroke: #000000" points="382.844,459.407 371.876,461.577 375.612,457.418 374.528,451.935 "/>
  </g>
  <g>
    <line style="fill: none; fill-opacity:0; stroke-width: 2; stroke: #000000" x1="225" y1="416" x2="225" y2="450.264"/>
    <polygon style="fill: #000000" points="225,457.764 220,447.764 225,450.264 230,447.764 "/>
    <polygon style="fill: none; fill-opacity:0; stroke-width: 2; stroke: #000000" points="225,457.764 220,447.764 225,450.264 230,447.764 "/>
  </g>
  <g>
    <line style="fill: none; fill-opacity:0; stroke-width: 2; stroke: #000000" x1="705" y1="416" x2="705" y2="450.264"/>
    <polygon style="fill: #000000" points="705,457.764 700,447.764 705,450.264 710,447.764 "/>
    <polygon style="fill: none; fill-opacity:0; stroke-width: 2; stroke: #000000" points="705,457.764 700,447.764 705,450.264 710,447.764 "/>
  </g>
  <g>
    <line style="fill: none; fill-opacity:0; stroke-width: 2; stroke: #000000" x1="545" y1="316" x2="695.612" y2="357.418"/>
    <polygon style="fill: #000000" points="702.844,359.407 691.876,361.577 695.612,357.418 694.528,351.935 "/>
    <polygon style="fill: none; fill-opacity:0; stroke-width: 2; stroke: #000000" points="702.844,359.407 691.876,361.577 695.612,357.418 694.528,351.935 "/>
  </g>
  <g>
    <line style="fill: none; fill-opacity:0; stroke-width: 2; stroke: #000000" x1="545" y1="316" x2="545" y2="350.264"/>
    <polygon style="fill: #000000" points="545,357.764 540,347.764 545,350.264 550,347.764 "/>
    <polygon style="fill: none; fill-opacity:0; stroke-width: 2; stroke: #000000" points="545,357.764 540,347.764 545,350.264 550,347.764 "/>
  </g>
  <g>
    <rect style="fill: #ffffff" x="320" y="360" width="130" height="56"/>
    <rect style="fill: none; fill-opacity:0; stroke-width: 4; stroke: #000000" x="320" y="360" width="130" height="56"/>
    <text font-size="16.9333" style="fill: #000000;text-anchor:middle;font-family:sans-serif;font-style:normal;font-weight:normal" x="385" y="382.583">
      <tspan x="385" y="382.583">CS/ECE 2330,</tspan>
      <tspan x="385" y="403.75">Dig Logic Des</tspan>
    </text>
  </g>
  <g>
    <line style="fill: none; fill-opacity:0; stroke-width: 2; stroke: #000000" x1="705" y1="416" x2="554.388" y2="457.418"/>
    <polygon style="fill: #000000" points="547.156,459.407 555.472,451.935 554.388,457.418 558.124,461.577 "/>
    <polygon style="fill: none; fill-opacity:0; stroke-width: 2; stroke: #000000" points="547.156,459.407 555.472,451.935 554.388,457.418 558.124,461.577 "/>
  </g>
  <g>
    <line style="fill: none; fill-opacity:0; stroke-width: 2; stroke: #000000" x1="545" y1="416" x2="545" y2="450.264"/>
    <polygon style="fill: #000000" points="545,457.764 540,447.764 545,450.264 550,447.764 "/>
    <polygon style="fill: none; fill-opacity:0; stroke-width: 2; stroke: #000000" points="545,457.764 540,447.764 545,450.264 550,447.764 "/>
  </g>
  <g>
    <line style="fill: none; fill-opacity:0; stroke-width: 2; stroke: #000000" x1="385" y1="416" x2="695.355" y2="458.674"/>
    <polygon style="fill: #000000" points="702.785,459.695 692.197,463.287 695.355,458.674 693.559,453.38 "/>
    <polygon style="fill: none; fill-opacity:0; stroke-width: 2; stroke: #000000" points="702.785,459.695 692.197,463.287 695.355,458.674 693.559,453.38 "/>
  </g>
  <g>
    <line style="fill: none; fill-opacity:0; stroke-width: 2; stroke: #000000" x1="705" y1="516" x2="705.414" y2="550.265"/>
    <polygon style="fill: #000000" points="705.505,557.764 700.384,547.825 705.414,550.265 710.384,547.704 "/>
    <polygon style="fill: none; fill-opacity:0; stroke-width: 2; stroke: #000000" points="705.505,557.764 700.384,547.825 705.414,550.265 710.384,547.704 "/>
  </g>
  <g>
    <line style="fill: none; fill-opacity:0; stroke-width: 2; stroke: #000000" x1="705" y1="516" x2="554.388" y2="557.418"/>
    <polygon style="fill: #000000" points="547.156,559.407 555.472,551.935 554.388,557.418 558.124,561.577 "/>
    <polygon style="fill: none; fill-opacity:0; stroke-width: 2; stroke: #000000" points="547.156,559.407 555.472,551.935 554.388,557.418 558.124,561.577 "/>
  </g>
  <g>
    <line style="fill: none; fill-opacity:0; stroke-width: 2; stroke: #000000" x1="545" y1="516" x2="545" y2="550.264"/>
    <polygon style="fill: #000000" points="545,557.764 540,547.764 545,550.264 550,547.764 "/>
    <polygon style="fill: none; fill-opacity:0; stroke-width: 2; stroke: #000000" points="545,557.764 540,547.764 545,550.264 550,547.764 "/>
  </g>
  <text font-size="12.8" style="fill: #000000;text-anchor:start;font-family:sans-serif;font-style:normal;font-weight:normal" x="652" y="652">
    <tspan x="652" y="652">Spring       only</tspan>
  </text>
  <text font-size="12.8" style="fill: #000000;text-anchor:start;font-family:sans-serif;font-style:normal;font-weight:normal" x="668" y="552">
    <tspan x="668" y="552">Fall       only</tspan>
  </text>
  <text font-size="12.8" style="fill: #000000;text-anchor:start;font-family:sans-serif;font-style:normal;font-weight:normal" x="195" y="352">
    <tspan x="195" y="352">Fall only</tspan>
  </text>
  <text font-size="12.8" style="fill: #000000;text-anchor:start;font-family:sans-serif;font-style:normal;font-weight:normal" x="164" y="452">
    <tspan x="164" y="452">Fall only</tspan>
  </text>
  <text font-size="12.8" style="fill: #000000;text-anchor:start;font-family:sans-serif;font-style:normal;font-weight:normal" x="380" y="451.5">
    <tspan x="380" y="451.5">Spring only</tspan>
  </text>
  <text font-size="16.9333" style="fill: #000000;text-anchor:middle;font-family:sans-serif;font-style:normal;font-weight:normal" x="851" y="1273">
    <tspan x="851" y="1273">Special topics </tspan>
    <tspan x="851" y="1294.17">courses (CS 2501</tspan>
    <tspan x="851" y="1315.33">3501, and 4501) </tspan>
    <tspan x="851" y="1336.5">have content </tspan>
    <tspan x="851" y="1357.67">and pre-reqs </tspan>
    <tspan x="851" y="1378.83">that vary each </tspan>
    <tspan x="851" y="1400">semester</tspan>
  </text>
  <g>
    <rect style="fill: #ffffff" x="280" y="780" width="130" height="56"/>
    <rect style="fill: none; fill-opacity:0; stroke-width: 4; stroke: #000000" x="280" y="780" width="130" height="56"/>
    <text font-size="16.9333" style="fill: #000000;text-anchor:middle;font-family:sans-serif;font-style:normal;font-weight:normal" x="345" y="802.583">
      <tspan x="345" y="802.583">ECE 2630,</tspan>
      <tspan x="345" y="823.75">Circuits I</tspan>
    </text>
  </g>
  <g>
    <rect style="fill: #ffffff" x="280" y="870" width="130" height="56"/>
    <rect style="fill: none; fill-opacity:0; stroke-width: 4; stroke: #000000" x="280" y="870" width="130" height="56"/>
    <text font-size="16.9333" style="fill: #000000;text-anchor:middle;font-family:sans-serif;font-style:normal;font-weight:normal" x="345" y="892.583">
      <tspan x="345" y="892.583">ECE 2660,</tspan>
      <tspan x="345" y="913.75">Electronics I</tspan>
    </text>
  </g>
  <g>
    <rect style="fill: #ffffff" x="120" y="1230" width="292" height="107.833"/>
    <rect style="fill: none; fill-opacity:0; stroke-width: 2; stroke: #000000" x="120" y="1230" width="292" height="107.833"/>
    <text font-size="16.9333" style="fill: #000000;text-anchor:middle;font-family:sans-serif;font-style:normal;font-weight:normal" x="266" y="1246.75">
      <tspan x="266" y="1246.75">ECE 3130, Solid State</tspan>
      <tspan x="266" y="1267.92">ECE 3209, E-mag Fields</tspan>
      <tspan x="266" y="1289.08">ECE 3250, EM Energy Conv</tspan>
      <tspan x="266" y="1310.25">ECE 4432, Intro to VLSI</tspan>
      <tspan x="266" y="1331.42">ECE 4641, Bioelectricity</tspan>
    </text>
  </g>
  <g>
    <rect style="fill: #ffffff" x="280" y="1150" width="131.065" height="56"/>
    <rect style="fill: none; fill-opacity:0; stroke-width: 2; stroke: #000000" x="280" y="1150" width="131.065" height="56"/>
    <text font-size="16.9333" style="fill: #000000;text-anchor:middle;font-family:sans-serif;font-style:normal;font-weight:normal" x="345.533" y="1172.58">
      <tspan x="345.533" y="1172.58">ECE 3660,</tspan>
      <tspan x="345.533" y="1193.75">Electronics II</tspan>
    </text>
  </g>
  <g>
    <rect style="fill: #ffffff" x="120" y="970" width="131.065" height="56"/>
    <rect style="fill: none; fill-opacity:0; stroke-width: 2; stroke: #000000" x="120" y="970" width="131.065" height="56"/>
    <text font-size="16.9333" style="fill: #000000;text-anchor:middle;font-family:sans-serif;font-style:normal;font-weight:normal" x="185.533" y="992.583">
      <tspan x="185.533" y="992.583">ECE 3760,</tspan>
      <tspan x="185.533" y="1013.75">Sig &amp; Sys II</tspan>
    </text>
  </g>
  <g>
    <rect style="fill: #ffffff" x="120" y="870" width="130" height="56"/>
    <rect style="fill: none; fill-opacity:0; stroke-width: 4; stroke: #000000" x="120" y="870" width="130" height="56"/>
    <text font-size="16.9333" style="fill: #000000;text-anchor:middle;font-family:sans-serif;font-style:normal;font-weight:normal" x="185" y="892.583">
      <tspan x="185" y="892.583">ECE 3750,</tspan>
      <tspan x="185" y="913.75">Signals &amp; Sys</tspan>
    </text>
  </g>
  <g>
    <rect style="fill: #ffffff" x="280" y="970" width="131.065" height="56"/>
    <rect style="fill: none; fill-opacity:0; stroke-width: 2; stroke: #000000" x="280" y="970" width="131.065" height="56"/>
    <text font-size="16.9333" style="fill: #000000;text-anchor:middle;font-family:sans-serif;font-style:normal;font-weight:normal" x="345.533" y="992.583">
      <tspan x="345.533" y="992.583">ECE 4850, Lin</tspan>
      <tspan x="345.533" y="1013.75">Ctrl Systems</tspan>
    </text>
  </g>
  <g>
    <rect style="fill: #ffffff" x="120" y="1070" width="131.065" height="56"/>
    <rect style="fill: none; fill-opacity:0; stroke-width: 2; stroke: #000000" x="120" y="1070" width="131.065" height="56"/>
    <text font-size="16.9333" style="fill: #000000;text-anchor:middle;font-family:sans-serif;font-style:normal;font-weight:normal" x="185.533" y="1092.58">
      <tspan x="185.533" y="1092.58">ECE 4710,</tspan>
      <tspan x="185.533" y="1113.75">Communicat.</tspan>
    </text>
  </g>
  <g>
    <rect style="fill: #ffffff" x="280" y="1070" width="131.065" height="56"/>
    <rect style="fill: none; fill-opacity:0; stroke-width: 2; stroke: #000000" x="280" y="1070" width="131.065" height="56"/>
    <text font-size="16.9333" style="fill: #000000;text-anchor:middle;font-family:sans-serif;font-style:normal;font-weight:normal" x="345.533" y="1092.58">
      <tspan x="345.533" y="1092.58">ECE 4860,</tspan>
      <tspan x="345.533" y="1113.75">Dig Ctrl Sys</tspan>
    </text>
  </g>
  <g>
    <rect style="fill: #ffffff" x="120" y="1150" width="131.065" height="56"/>
    <rect style="fill: none; fill-opacity:0; stroke-width: 2; stroke: #000000" x="120" y="1150" width="131.065" height="56"/>
    <text font-size="16.9333" style="fill: #000000;text-anchor:middle;font-family:sans-serif;font-style:normal;font-weight:normal" x="185.533" y="1172.58">
      <tspan x="185.533" y="1172.58">ECE 4784,</tspan>
      <tspan x="185.533" y="1193.75">Wireless Com</tspan>
    </text>
  </g>
  <g>
    <line style="fill: none; fill-opacity:0; stroke-width: 2; stroke: #000000" x1="185" y1="926" x2="185.415" y2="960.265"/>
    <polygon style="fill: #000000" points="185.506,967.764 180.385,957.825 185.415,960.265 190.384,957.704 "/>
    <polygon style="fill: none; fill-opacity:0; stroke-width: 2; stroke: #000000" points="185.506,967.764 180.385,957.825 185.415,960.265 190.384,957.704 "/>
  </g>
  <g>
    <line style="fill: none; fill-opacity:0; stroke-width: 2; stroke: #000000" x1="185" y1="926" x2="336.142" y2="967.426"/>
    <polygon style="fill: #000000" points="343.375,969.409 332.409,971.588 336.142,967.426 335.053,961.943 "/>
    <polygon style="fill: none; fill-opacity:0; stroke-width: 2; stroke: #000000" points="343.375,969.409 332.409,971.588 336.142,967.426 335.053,961.943 "/>
  </g>
  <g>
    <line style="fill: none; fill-opacity:0; stroke-width: 2; stroke: #000000" x1="185.533" y1="1026.99" x2="185.533" y2="1060.26"/>
    <polygon style="fill: #000000" points="185.533,1067.76 180.533,1057.76 185.533,1060.26 190.533,1057.76 "/>
    <polygon style="fill: none; fill-opacity:0; stroke-width: 2; stroke: #000000" points="185.533,1067.76 180.533,1057.76 185.533,1060.26 190.533,1057.76 "/>
  </g>
  <g>
    <line style="fill: none; fill-opacity:0; stroke-width: 2; stroke: #000000" x1="345.532" y1="1026" x2="345.532" y2="1059.28"/>
    <polygon style="fill: #000000" points="345.532,1066.78 340.532,1056.78 345.532,1059.28 350.532,1056.78 "/>
    <polygon style="fill: none; fill-opacity:0; stroke-width: 2; stroke: #000000" points="345.532,1066.78 340.532,1056.78 345.532,1059.28 350.532,1056.78 "/>
  </g>
  <g>
    <line style="fill: none; fill-opacity:0; stroke-width: 2; stroke: #000000" x1="185.533" y1="1126" x2="185.533" y2="1140.26"/>
    <polygon style="fill: #000000" points="185.533,1147.76 180.533,1137.76 185.533,1140.26 190.533,1137.76 "/>
    <polygon style="fill: none; fill-opacity:0; stroke-width: 2; stroke: #000000" points="185.533,1147.76 180.533,1137.76 185.533,1140.26 190.533,1137.76 "/>
  </g>
  <g>
    <line style="fill: none; fill-opacity:0; stroke-width: 2; stroke: #000000" x1="345" y1="836" x2="345" y2="860.264"/>
    <polygon style="fill: #000000" points="345,867.764 340,857.764 345,860.264 350,857.764 "/>
    <polygon style="fill: none; fill-opacity:0; stroke-width: 2; stroke: #000000" points="345,867.764 340,857.764 345,860.264 350,857.764 "/>
  </g>
  <g>
    <line style="fill: none; fill-opacity:0; stroke-width: 2; stroke: #000000" x1="345" y1="836" x2="194.523" y2="867.976"/>
    <polygon style="fill: #000000" points="187.187,869.535 195.93,862.566 194.523,867.976 198.008,872.347 "/>
    <polygon style="fill: none; fill-opacity:0; stroke-width: 2; stroke: #000000" points="187.187,869.535 195.93,862.566 194.523,867.976 198.008,872.347 "/>
  </g>
  <text font-size="12.8" style="fill: #000000;text-anchor:start;font-family:sans-serif;font-style:normal;font-weight:normal" x="310" y="770">
    <tspan x="310" y="770">Fall only</tspan>
  </text>
  <text font-size="12.8" style="fill: #000000;text-anchor:start;font-family:sans-serif;font-style:normal;font-weight:normal" x="124" y="862">
    <tspan x="124" y="862">Fall only</tspan>
  </text>
  <text font-size="12.8" style="fill: #000000;text-anchor:start;font-family:sans-serif;font-style:normal;font-weight:normal" x="292.5" y="864">
    <tspan x="292.5" y="864">Spring       only</tspan>
  </text>
  <g>
    <rect style="fill: #ffffff" x="540" y="870" width="130" height="56"/>
    <rect style="fill: none; fill-opacity:0; stroke-width: 4; stroke: #000000" x="540" y="870" width="130" height="56"/>
    <text font-size="16.9333" style="fill: #000000;text-anchor:middle;font-family:sans-serif;font-style:normal;font-weight:normal" x="605" y="892.583">
      <tspan x="605" y="892.583">CS 2150, Prog</tspan>
      <tspan x="605" y="913.75">&amp; Data Rep</tspan>
    </text>
  </g>
  <g>
    <rect style="fill: #ffffff" x="700" y="870" width="130" height="56"/>
    <rect style="fill: none; fill-opacity:0; stroke-width: 4; stroke: #000000" x="700" y="870" width="130" height="56"/>
    <text font-size="16.9333" style="fill: #000000;text-anchor:middle;font-family:sans-serif;font-style:normal;font-weight:normal" x="765" y="892.583">
      <tspan x="765" y="892.583">CS/ECE 3330, </tspan>
      <tspan x="765" y="913.75">Comp Arch</tspan>
    </text>
  </g>
  <text font-size="12.8" style="fill: #000000;text-anchor:start;font-family:sans-serif;font-style:normal;font-weight:normal" x="845.532" y="878">
    <tspan x="845.532" y="878"></tspan>
  </text>
  <g>
    <rect style="fill: #ffffff" x="789" y="1110" width="131.065" height="56"/>
    <rect style="fill: none; fill-opacity:0; stroke-width: 4; stroke: #000000" x="789" y="1110" width="131.065" height="56"/>
    <text font-size="16.9333" style="fill: #000000;text-anchor:middle;font-family:sans-serif;font-style:normal;font-weight:normal" x="854.533" y="1132.58">
      <tspan x="854.533" y="1132.58">CS 4457,</tspan>
      <tspan x="854.533" y="1153.75">Networks</tspan>
    </text>
  </g>
  <text font-size="12.8" style="fill: #000000;text-anchor:start;font-family:sans-serif;font-style:normal;font-weight:normal" x="680" y="944">
    <tspan x="680" y="944">Spring only</tspan>
  </text>
  <g>
    <rect style="fill: #ffffff" x="620" y="950" width="130" height="56"/>
    <rect style="fill: none; fill-opacity:0; stroke-width: 4; stroke: #000000" x="620" y="950" width="130" height="56"/>
    <text font-size="16.9333" style="fill: #000000;text-anchor:middle;font-family:sans-serif;font-style:normal;font-weight:normal" x="685" y="972.583">
      <tspan x="685" y="972.583">CS 3240, Adv</tspan>
      <tspan x="685" y="993.75">SW Dev Tech</tspan>
    </text>
  </g>
  <g>
    <rect style="fill: #ffffff" x="620" y="1110" width="131.065" height="56"/>
    <rect style="fill: none; fill-opacity:0; stroke-width: 2; stroke: #000000" x="620" y="1110" width="131.065" height="56"/>
    <text font-size="16.9333" style="fill: #000000;text-anchor:middle;font-family:sans-serif;font-style:normal;font-weight:normal" x="685.533" y="1132.58">
      <tspan x="685.533" y="1132.58">CS 4444,</tspan>
      <tspan x="685.533" y="1153.75">Parallel Comp</tspan>
    </text>
  </g>
  <g>
    <rect style="fill: #ffffff" x="789" y="1190" width="129.4" height="56"/>
    <rect style="fill: none; fill-opacity:0; stroke-width: 2; stroke: #000000" x="789" y="1190" width="129.4" height="56"/>
    <text font-size="16.9333" style="fill: #000000;text-anchor:middle;font-family:sans-serif;font-style:normal;font-weight:normal" x="853.7" y="1212.58">
      <tspan x="853.7" y="1212.58">CS 4458,</tspan>
      <tspan x="853.7" y="1233.75">Internet Eng.</tspan>
    </text>
  </g>
  <g>
    <line style="fill: none; fill-opacity:0; stroke-width: 2; stroke: #000000" x1="854.533" y1="1166" x2="854.32" y2="1179.26"/>
    <polygon style="fill: #000000" points="854.2,1186.76 849.361,1176.68 854.32,1179.26 859.36,1176.84 "/>
    <polygon style="fill: none; fill-opacity:0; stroke-width: 2; stroke: #000000" points="854.2,1186.76 849.361,1176.68 854.32,1179.26 859.36,1176.84 "/>
  </g>
  <g>
    <rect style="fill: #ffffff" x="789" y="1030" width="131.065" height="56"/>
    <rect style="fill: none; fill-opacity:0; stroke-width: 2; stroke: #000000" x="789" y="1030" width="131.065" height="56"/>
    <text font-size="16.9333" style="fill: #000000;text-anchor:middle;font-family:sans-serif;font-style:normal;font-weight:normal" x="854.533" y="1052.58">
      <tspan x="854.533" y="1052.58">CS 4434,</tspan>
      <tspan x="854.533" y="1073.75">Fault-tolerant</tspan>
    </text>
  </g>
  <g>
    <rect style="fill: #ffffff" x="620" y="1030" width="131.065" height="56"/>
    <rect style="fill: none; fill-opacity:0; stroke-width: 2; stroke: #000000" x="620" y="1030" width="131.065" height="56"/>
    <text font-size="16.9333" style="fill: #000000;text-anchor:middle;font-family:sans-serif;font-style:normal;font-weight:normal" x="685.533" y="1052.58">
      <tspan x="685.533" y="1052.58">CS 4620,</tspan>
      <tspan x="685.533" y="1073.75">Compilers</tspan>
    </text>
  </g>
  <g>
    <rect style="fill: #ffffff" x="789" y="948" width="131.065" height="56"/>
    <rect style="fill: none; fill-opacity:0; stroke-width: 2; stroke: #000000" x="789" y="948" width="131.065" height="56"/>
    <text font-size="16.9333" style="fill: #000000;text-anchor:middle;font-family:sans-serif;font-style:normal;font-weight:normal" x="854.533" y="970.583">
      <tspan x="854.533" y="970.583">CS 3205,</tspan>
      <tspan x="854.533" y="991.75">HCI</tspan>
    </text>
  </g>
  <line style="fill: none; fill-opacity:0; stroke-width: 2; stroke: #000000" x1="765" y1="926" x2="765.235" y2="1003.02"/>
  <g>
    <line style="fill: none; fill-opacity:0; stroke-width: 2; stroke: #000000" x1="685" y1="1006" x2="685.136" y2="1019.26"/>
    <polygon style="fill: #000000" points="685.213,1026.76 680.111,1016.81 685.136,1019.26 690.11,1016.71 "/>
    <polygon style="fill: none; fill-opacity:0; stroke-width: 2; stroke: #000000" points="685.213,1026.76 680.111,1016.81 685.136,1019.26 690.11,1016.71 "/>
  </g>
  <g>
    <line style="fill: none; fill-opacity:0; stroke-width: 2; stroke: #000000" x1="608.03" y1="1092.15" x2="614.578" y2="1101.91"/>
    <polygon style="fill: #000000" points="618.755,1108.14 609.033,1102.62 614.578,1101.91 617.339,1097.05 "/>
    <polygon style="fill: none; fill-opacity:0; stroke-width: 2; stroke: #000000" points="618.755,1108.14 609.033,1102.62 614.578,1101.91 617.339,1097.05 "/>
  </g>
  <g>
    <line style="fill: none; fill-opacity:0; stroke-width: 2; stroke: #000000" x1="762.563" y1="1012.17" x2="756.342" y2="1021.82"/>
    <polygon style="fill: #000000" points="752.278,1028.12 753.494,1017.01 756.342,1021.82 761.899,1022.43 "/>
    <polygon style="fill: none; fill-opacity:0; stroke-width: 2; stroke: #000000" points="752.278,1028.12 753.494,1017.01 756.342,1021.82 761.899,1022.43 "/>
  </g>
  <g>
    <line style="fill: none; fill-opacity:0; stroke-width: 2; stroke: #000000" x1="766.375" y1="1012.83" x2="786.792" y2="1100.52"/>
    <polygon style="fill: #000000" points="788.493,1107.82 781.355,1099.22 786.792,1100.52 791.095,1096.95 "/>
    <polygon style="fill: none; fill-opacity:0; stroke-width: 2; stroke: #000000" points="788.493,1107.82 781.355,1099.22 786.792,1100.52 791.095,1096.95 "/>
  </g>
  <g>
    <path style="fill: none; fill-opacity:0; stroke-width: 2; stroke: #000000" d="M 345 926 C 470,940 420,1080 412.299,1140.34"/>
    <polygon style="fill: #000000" points="411.349,1147.78 407.655,1137.23 412.299,1140.34 417.575,1138.5 "/>
    <polygon style="fill: none; fill-opacity:0; stroke-width: 2; stroke: #000000" points="411.349,1147.78 407.655,1137.23 412.299,1140.34 417.575,1138.5 "/>
  </g>
  <g>
    <rect style="fill: #ffffff" x="620" y="780" width="130" height="56"/>
    <rect style="fill: none; fill-opacity:0; stroke-width: 4; stroke: #000000" x="620" y="780" width="130" height="56"/>
    <text font-size="16.9333" style="fill: #000000;text-anchor:middle;font-family:sans-serif;font-style:normal;font-weight:normal" x="685" y="802.583">
      <tspan x="685" y="802.583">CS 2110, SW</tspan>
      <tspan x="685" y="823.75">Dev Methods</tspan>
    </text>
  </g>
  <g>
    <line style="fill: none; fill-opacity:0; stroke-width: 2; stroke: #000000" x1="605" y1="926" x2="675.675" y2="947.202"/>
    <polygon style="fill: #000000" points="682.858,949.357 671.843,951.273 675.675,947.202 674.717,941.695 "/>
    <polygon style="fill: none; fill-opacity:0; stroke-width: 2; stroke: #000000" points="682.858,949.357 671.843,951.273 675.675,947.202 674.717,941.695 "/>
  </g>
  <line style="fill: none; fill-opacity:0; stroke-width: 2; stroke: #000000" x1="605" y1="926" x2="605.242" y2="1083.01"/>
  <g>
    <rect style="fill: #ffffff" x="443" y="1180" width="324" height="213.667"/>
    <rect style="fill: none; fill-opacity:0; stroke-width: 2; stroke: #000000" x="443" y="1180" width="324" height="213.667"/>
    <text font-size="16.9333" style="fill: #000000;text-anchor:middle;font-family:sans-serif;font-style:normal;font-weight:normal" x="605" y="1196.75">
      <tspan x="605" y="1196.75">All CS electives not listed</tspan>
      <tspan x="605" y="1217.92">elsewhere on this graph (but check</tspan>
      <tspan x="605" y="1239.08">the course descriptions for details).</tspan>
      <tspan x="605" y="1260.25">4 CS or ECE electives are required,</tspan>
      <tspan x="605" y="1281.42">two of which must be 4000-level</tspan>
      <tspan x="605" y="1302.58">or higher.  An elective is any class</tspan>
      <tspan x="605" y="1323.75">not otherwise required for the</tspan>
      <tspan x="605" y="1344.92">major.  CS 4993 may be taken for</tspan>
      <tspan x="605" y="1366.08">at most 3 credits.  CS 4998 is in the</tspan>
      <tspan x="605" y="1387.25">BA program and does not count.</tspan>
    </text>
  </g>
  <text font-size="27.0933" style="fill: #000000;text-anchor:middle;font-family:sans-serif;font-style:normal;font-weight:normal" x="840" y="780">
    <tspan x="840" y="780">CS Electives</tspan>
    <tspan x="840" y="813.867">(&amp; pre-reqs)</tspan>
  </text>
  <text font-size="27.0933" style="fill: #000000;text-anchor:middle;font-family:sans-serif;font-style:normal;font-weight:normal" x="190" y="760">
    <tspan x="190" y="760">ECE </tspan>
    <tspan x="190" y="793.867">Electives</tspan>
    <tspan x="190" y="827.733">(&amp; pre-reqs)</tspan>
  </text>
  <g>
    <line style="fill: none; fill-opacity:0; stroke-width: 2; stroke: #000000" x1="545" y1="516" x2="394.388" y2="557.418"/>
    <polygon style="fill: #000000" points="387.156,559.407 395.472,551.935 394.388,557.418 398.124,561.577 "/>
    <polygon style="fill: none; fill-opacity:0; stroke-width: 2; stroke: #000000" points="387.156,559.407 395.472,551.935 394.388,557.418 398.124,561.577 "/>
  </g>
  <g>
    <path style="fill: none; fill-opacity:0; stroke-width: 2; stroke: #000000" d="M 705 516 C 560,550 690,610 554.733,656.816"/>
    <polygon style="fill: #000000" points="547.645,659.269 555.46,651.273 554.733,656.816 558.73,660.723 "/>
    <polygon style="fill: none; fill-opacity:0; stroke-width: 2; stroke: #000000" points="547.645,659.269 555.46,651.273 554.733,656.816 558.73,660.723 "/>
  </g>
  <g>
    <line style="fill: none; fill-opacity:0; stroke-width: 2; stroke: #000000" x1="685" y1="836" x2="613.96" y2="866.192"/>
    <polygon style="fill: #000000" points="607.058,869.125 614.306,860.612 613.96,866.192 618.217,869.816 "/>
    <polygon style="fill: none; fill-opacity:0; stroke-width: 2; stroke: #000000" points="607.058,869.125 614.306,860.612 613.96,866.192 618.217,869.816 "/>
  </g>
  <g>
    <path style="fill: none; fill-opacity:0; stroke-width: 2; stroke: #000000" d="M 345 836 C 230,860 270.604,865.079 266.711,1219.26"/>
    <polygon style="fill: #000000" points="266.628,1226.76 261.738,1216.7 266.711,1219.26 271.738,1216.81 "/>
    <polygon style="fill: none; fill-opacity:0; stroke-width: 2; stroke: #000000" points="266.628,1226.76 261.738,1216.7 266.711,1219.26 271.738,1216.81 "/>
  </g>
  <g>
    <line style="fill: none; fill-opacity:0; stroke-width: 2; stroke: #000000" x1="685" y1="836" x2="756.04" y2="866.192"/>
    <polygon style="fill: #000000" points="762.942,869.125 751.783,869.816 756.04,866.192 755.694,860.612 "/>
    <polygon style="fill: none; fill-opacity:0; stroke-width: 2; stroke: #000000" points="762.942,869.125 751.783,869.816 756.04,866.192 755.694,860.612 "/>
  </g>
  <g>
    <ellipse style="fill: #000000" cx="605.25" cy="1088" rx="4" ry="4"/>
    <ellipse style="fill: none; fill-opacity:0; stroke-width: 2; stroke: #000000" cx="605.25" cy="1088" rx="4" ry="4"/>
    <ellipse style="fill: none; fill-opacity:0; stroke-width: 2; stroke: #000000" cx="605.25" cy="1088" rx="4" ry="4"/>
  </g>
  <g>
    <ellipse style="fill: #000000" cx="765.25" cy="1008" rx="4" ry="4"/>
    <ellipse style="fill: none; fill-opacity:0; stroke-width: 2; stroke: #000000" cx="765.25" cy="1008" rx="4" ry="4"/>
    <ellipse style="fill: none; fill-opacity:0; stroke-width: 2; stroke: #000000" cx="765.25" cy="1008" rx="4" ry="4"/>
  </g>
  <g>
    <line style="fill: none; fill-opacity:0; stroke-width: 2; stroke: #000000" x1="605.236" y1="1093" x2="605.026" y2="1170.26"/>
    <polygon style="fill: #000000" points="605.006,1177.76 600.033,1167.75 605.026,1170.26 610.033,1167.78 "/>
    <polygon style="fill: none; fill-opacity:0; stroke-width: 2; stroke: #000000" points="605.006,1177.76 600.033,1167.75 605.026,1170.26 610.033,1167.78 "/>
  </g>
  <g>
    <path style="fill: none; fill-opacity:0; stroke-width: 2; stroke: #000000" d="M 765.295 1012.99 C 766.045,1096.99 768,1084 756.38,1101.84"/>
    <polygon style="fill: #000000" points="752.286,1108.13 753.554,1097.02 756.38,1101.84 761.934,1102.48 "/>
    <polygon style="fill: none; fill-opacity:0; stroke-width: 2; stroke: #000000" points="752.286,1108.13 753.554,1097.02 756.38,1101.84 761.934,1102.48 "/>
  </g>
  <text font-size="27.0933" style="fill: #000000;text-anchor:middle;font-family:sans-serif;font-style:normal;font-weight:normal" x="320" y="280">
    <tspan x="320" y="280">Required</tspan>
    <tspan x="320" y="313.867">Courses</tspan>
  </text>
  <text font-size="27.0933" style="fill: #000000;text-anchor:middle;font-family:sans-serif;font-style:normal;font-weight:normal" x="190" y="614">
    <tspan x="190" y="614">Legend:</tspan>
  </text>
  <text font-size="12.8" style="fill: #000000;text-anchor:middle;font-family:sans-serif;font-style:normal;font-weight:normal" x="384" y="644">
    <tspan x="384" y="644">Courses not listed:</tspan>
    <tspan x="384" y="660">CS 1010 cannot count;</tspan>
    <tspan x="384" y="676">CS 1120, 2220, &amp; 4998 </tspan>
    <tspan x="384" y="692">are BA CS courses; CS</tspan>
    <tspan x="384" y="708">4330 overlaps with </tspan>
    <tspan x="384" y="724">ECE 4435</tspan>
  </text>
  <g>
    <rect style="fill: #ffffff" x="460" y="780" width="130" height="56"/>
    <rect style="fill: none; fill-opacity:0; stroke-width: 4; stroke: #000000" x="460" y="780" width="130" height="56"/>
    <text font-size="16.9333" style="fill: #000000;text-anchor:middle;font-family:sans-serif;font-style:normal;font-weight:normal" x="525" y="802.583">
      <tspan x="525" y="802.583">CS 2102,</tspan>
      <tspan x="525" y="823.75">Discrete Math</tspan>
    </text>
  </g>
  <g>
    <rect style="fill: #ffffff" x="460" y="1110" width="130" height="56"/>
    <rect style="fill: none; fill-opacity:0; stroke-width: 2; stroke: #000000" x="460" y="1110" width="130" height="56"/>
    <text font-size="16.9333" style="fill: #000000;text-anchor:middle;font-family:sans-serif;font-style:normal;font-weight:normal" x="525" y="1132.58">
      <tspan x="525" y="1132.58">CS 4102,</tspan>
      <tspan x="525" y="1153.75">Algorithms</tspan>
    </text>
  </g>
  <g>
    <rect style="fill: #ffffff" x="460" y="1030" width="130" height="56"/>
    <rect style="fill: none; fill-opacity:0; stroke-width: 2; stroke: #000000" x="460" y="1030" width="130" height="56"/>
    <text font-size="16.9333" style="fill: #000000;text-anchor:middle;font-family:sans-serif;font-style:normal;font-weight:normal" x="525" y="1052.58">
      <tspan x="525" y="1052.58">CS 3102,</tspan>
      <tspan x="525" y="1073.75">Theory Comp</tspan>
    </text>
  </g>
  <g>
    <line style="fill: none; fill-opacity:0; stroke-width: 2; stroke: #000000" x1="602.867" y1="1091.44" x2="595.547" y2="1102"/>
    <polygon style="fill: #000000" points="591.274,1108.16 592.862,1097.1 595.547,1102 601.08,1102.79 "/>
    <polygon style="fill: none; fill-opacity:0; stroke-width: 2; stroke: #000000" points="591.274,1108.16 592.862,1097.1 595.547,1102 601.08,1102.79 "/>
  </g>
  <g>
    <line style="fill: none; fill-opacity:0; stroke-width: 2; stroke: #000000" x1="525" y1="836" x2="596.04" y2="866.192"/>
    <polygon style="fill: #000000" points="602.942,869.125 591.783,869.816 596.04,866.192 595.694,860.612 "/>
    <polygon style="fill: none; fill-opacity:0; stroke-width: 2; stroke: #000000" points="602.942,869.125 591.783,869.816 596.04,866.192 595.694,860.612 "/>
  </g>
  <path style="fill: none; fill-opacity:0; stroke-width: 2; stroke: #000000" d="M 525 836 C 460,880 440,925.017 440,995.017"/>
  <g>
    <line style="fill: none; fill-opacity:0; stroke-width: 2; stroke: #000000" x1="440.895" y1="1004.92" x2="458.258" y2="1100.42"/>
    <polygon style="fill: #000000" points="459.6,1107.8 452.892,1098.86 458.258,1100.42 462.73,1097.07 "/>
    <polygon style="fill: none; fill-opacity:0; stroke-width: 2; stroke: #000000" points="459.6,1107.8 452.892,1098.86 458.258,1100.42 462.73,1097.07 "/>
  </g>
  <g>
    <ellipse style="fill: #000000" cx="440" cy="1000" rx="4" ry="4"/>
    <ellipse style="fill: none; fill-opacity:0; stroke-width: 2; stroke: #000000" cx="440" cy="1000" rx="4" ry="4"/>
    <ellipse style="fill: none; fill-opacity:0; stroke-width: 2; stroke: #000000" cx="440" cy="1000" rx="4" ry="4"/>
  </g>
  <g>
    <line style="fill: none; fill-opacity:0; stroke-width: 2; stroke: #000000" x1="442.778" y1="1004.17" x2="454.599" y2="1021.9"/>
    <polygon style="fill: #000000" points="458.76,1028.14 449.052,1022.59 454.599,1021.9 457.373,1017.05 "/>
    <polygon style="fill: none; fill-opacity:0; stroke-width: 2; stroke: #000000" points="458.76,1028.14 449.052,1022.59 454.599,1021.9 457.373,1017.05 "/>
  </g>
  <g>
    <path style="fill: none; fill-opacity:0; stroke-width: 2; stroke: #000000" d="M 685 836 C 500,864 524,816 524.955,1020.26"/>
    <polygon style="fill: #000000" points="524.99,1027.76 519.943,1017.79 524.955,1020.26 529.943,1017.74 "/>
    <polygon style="fill: none; fill-opacity:0; stroke-width: 2; stroke: #000000" points="524.99,1027.76 519.943,1017.79 524.955,1020.26 529.943,1017.74 "/>
  </g>
  <g>
    <line style="fill: none; fill-opacity:0; stroke-width: 2; stroke: #000000" x1="768.92" y1="1011.4" x2="781.857" y2="1023.38"/>
    <polygon style="fill: #000000" points="787.36,1028.48 776.626,1025.35 781.857,1023.38 783.421,1018.02 "/>
    <polygon style="fill: none; fill-opacity:0; stroke-width: 2; stroke: #000000" points="787.36,1028.48 776.626,1025.35 781.857,1023.38 783.421,1018.02 "/>
  </g>
  <g>
    <path style="fill: none; fill-opacity:0; stroke-width: 2; stroke: #000000" d="M 685 836 C 816,856 862.465,819.024 856.488,937.3"/>
    <polygon style="fill: #000000" points="856.11,944.791 851.621,934.551 856.488,937.3 861.608,935.056 "/>
    <polygon style="fill: none; fill-opacity:0; stroke-width: 2; stroke: #000000" points="856.11,944.791 851.621,934.551 856.488,937.3 861.608,935.056 "/>
  </g>
  <text font-size="12.7998" style="fill: #000000;text-anchor:start;font-family:sans-serif;font-style:normal;font-weight:normal" x="605" y="1286.83">
    <tspan x="605" y="1286.83"></tspan>
  </text>
</svg>
